<?xml version="1.0" encoding="utf-8"?>
<svg version="1.1"
	xmlns="http://www.w3.org/2000/svg"
	xmlns:xlink="http://www.w3.org/1999/xlink"
	xmlns:ev="http://www.w3.org/2001/xml-events"
	xmlns:html="//www.w3.org/1999/xhtml"
	x="0px" y="0px"
	viewBox="0 0 1920 1200" style="enable-background:new 0 0 1920 1200;" xml:space="preserve">
<style type="text/css">
	.st0{fill:#C83C3C;}
	.st1{fill:#4A0726;}
	.st2{fill:#750134;}
	.st3{fill:#620032;}
	.st4{fill:#881C1C;}
	.st5{fill:#AA1041;}
	.st6{fill:#9E2828;}
	.st7{fill:#9D2827;}
	.st8{fill:#FEFEFE;}
	.st9{fill:#DD5A5A;}
	.st10{fill:#912120;}
	.st11{fill:#A91041;}
	.st12{fill:#AA1040;}
	.st13{fill:#B61633;}
	.st14{fill:#8C1C1D;}
	.st15{fill:#DE5B5B;}
	.st16{fill:#FC8774;}
	.st17{fill:#8A1CCA;}
	.st18{display:none;fill:#0F7EAD;}
	.st19{fill:#B3246E;}
	.st20{fill:#FD8F02;}
	.st21{fill:#5601A7;}
	.st22{fill:#2F115D;}
	.st23{fill:#8B1CCB;}
	.st24{fill:#2F125E;}
	.st25{fill:#AC2A72;}
	.st26{fill:#5501A7;}
	.st27{fill:#FD6D26;}
	.st28{fill:#30125D;}
	.st29{fill:#32145E;}
	.st30{fill:#C029BF;}
	.st31{fill:#FDB501;}
	.st32{fill:#B1246F;}
	.st33{fill:#25034A;}
	.st34{fill:#520CA9;}
	.st35{fill:#441956;}
	.st36{fill:#5708A5;}
	.st37{fill:#31135F;}
	.st38{fill:#5600A7;}
	.st39{fill:#B12572;}
	.st40{fill:#AE1F9E;}
	.st41{fill:#41067F;}
	.st42{fill:#FE5024;}
	.st43{fill:#FD6D27;}
	.st44{fill:#8A1CC9;}
	.st45{fill:#380E6B;}
	.st46{fill:#3A0D6E;}
	.st47{display:none;fill:#107EAD;}
	.st48{fill:#BB7E5B;}
	.st49{fill:#FC8702;}
	.st50{fill:#F8F0E3;}
	.st51{fill:#F95127;}
	.st52{fill:#0E80AE;}
	.st53{fill:#5AC5FD;}
	.st54{fill:#85E4FD;}
	.st55{fill:#84E3FD;}
	.st56{fill:#86E4FD;}
	.st57{fill:#85E3FC;}
	.st58{fill:#83E2FC;}
	.st59{fill:#59C5FB;}
	.st60{fill:#87E3FC;}
	.st61{fill:#81E2FB;}
	.st62{fill:#5AC5F9;}
	.st63{fill:#59C4FA;}
	.st64{fill:#85E3FD;}
	.st65{fill:#470D77;}
	.st66{fill:#22004A;}
	.st67{fill:#FAF2E4;}
	.st68{fill:#AD1E9F;}
	.st69{fill:#B3246F;}
	.st70{fill:#8A1BCA;}
	.st71{fill:none;}
	.st72{fill:#2E105A;}
	.st73{fill:#002973;}
	.st74{fill:#0073A7;}
	.st75{fill:#008A7F;}
	.st76{fill:#005194;}
	.st77{fill:#006798;}
	.st78{fill:#2B1056;}
	.st79{fill:#002972;}
	.st80{fill:#2C1057;}
	.st81{fill:#006C9D;}
	.st82{fill:#00837A;}
	.st83{fill:#00569D;}
	.st84{fill:#22034C;}
	.st85{fill:#1BD39D;}
	.st86{fill:#013C80;}
	.st87{fill:#009388;}
	.st88{fill:#1CD1A0;}
	.st89{fill:#01978F;}
	.st90{fill:#019892;}
	.st91{fill:#019995;}
	.st92{fill:#015A9F;}
	.st93{fill:#22014C;}
	.st94{fill:#24024D;}
	.st95{fill:#0D808F;}
	.st96{fill:#02589F;}
	.st97{fill:#034186;}
	.st98{fill:#22024C;}
	.st99{fill:#FCF5E6;}
	.st100{fill:#30145C;}
	.st101{fill:#FCF4E5;}
	.st102{fill:#2E125C;}
	.st103{fill:#F2E9E1;}
	.st104{fill:#0071A3;}
	.st105{fill:#0158A0;}
	.st106{fill:#028F88;}
	.st107{fill:#005598;}
	.st108{fill:#038F8A;}
	.st109{fill:#018E88;}
	.st110{fill:#028B86;}
	.st111{fill:#01918B;}
	.st112{fill:#02908A;}
	.st113{fill:#018D86;}
	.st114{fill:#016BA1;}
	.st115{fill:#01407A;}
	.sst0{fill:#620032;}
	.sst1{fill:#AA1041;}
</style>
<defs>
		<script>
			function music(a) {
				return document.querySelector(a);
			}
		</script>
		<audio xmlns="http://www.w3.org/1999/xhtml" preload="auto">
			<source src="fragment.mp3" type="audio/mpeg"/>
		</audio>
	</defs>
<g id="play"  onclick="music('audio').play(); music('audio').loop=false;">
		<rect  x="0" y="0"  width="1800" height="1100" fill="#620032"/>
		<text  x="20" y="1100" font-size="144" fill="white" >▶PLAY</text>
	</g>
<g id="bg">
	<g>
		<g>
			<path class="st0" d="M802.9,0.7c33.2,0,66.4,0,99.6,0c2,1,3.3,2.6,4.2,4.7c7.1,15.6,11.2,32,13.6,49c1.9,13.6,4,27.2,5.1,40.8
				c1.1,13.9,3.3,27.6,4.3,41.5c0.8,11.5,1.7,23.1,3.4,34.6c0.3,2.4,1.3,4.9-0.3,7.2c-1.2,1.2-2.8,1.1-4.3,1.1
				c-27.9-0.2-55.8-0.4-83.7,0c-139.5,2-279,0.2-418.6,0.9c-24.4,0.1-45.7,8.7-64.4,24c-3.9,3.2-6,7.8-9.6,11.3
				c-10.5,10.5-21.5,20.6-31.5,31.6c-11.9,13-24.7,25.1-37,37.7c-12.4,12.7-25.6,24.8-38.3,37.2c-5.4,5.3-10.9,10.6-16.5,15.7
				c-15,13.7-26.3,30.3-38,46.8c-10.5,15-15.6,31.9-19.9,49.2c-2.4,9.7-2.8,19.8-3.7,29.9c-1.8,21.2,2.6,41.2,8.6,61.1
				c2.5,8.3,3.5,17,8,24.6c9,15.2,17.3,31,30.3,43.2c10.5,9.9,23.5,16.2,38.5,16.4c15.2,0.2,30.4,0,45.6,0.1
				c5.7,0,11.4-0.1,17.2,0.7c6.7,0.9,13.3-0.3,19.7-2.2c3.3-0.9,6.6-1.4,10.1-1.4c44.7,0,89.3,0,134,0c9.9,0,19.3,2.9,28.8,4.7
				c15.2,2.9,30.5,5.6,45,11.1c19.2,7.2,36.6,17.4,52.1,30.9c2.2,1.9,4.1,4.3,5.7,6.7c4.2,6.2,9.9,11,14.8,16.5
				c9.2,10.4,18.7,20.6,27.4,31.5c6.7,8.5,14.6,15.5,22.5,22.7c13.7,12.6,26.8,25.9,39,39.8c6.8,7.8,14.4,15.2,20,24.2
				c4,6.4,10.6,10.8,15.3,16.8c2.6,3.3,4.8,6.9,7.8,9.8c8.2,7.9,15.8,16.5,25.3,22.9c3.9,2.6,6.2,6.9,9.8,9.9
				c7.5,6.3,16.4,9.8,25.2,13.8c12.3,5.6,24.7,10.6,38.2,12.5c1.8,0.3,3.7,0.6,5.5,0.6c59.2,0,118.5,1.5,177.7-0.5
				c38.9-1.3,77.7-0.7,116.6-1.2c38.9-0.5,77.8-0.1,116.7-0.1c3.6,0,7.6-0.7,10.4,2.7c1.3,2.9-0.8,4.3-2.5,5.7
				c-4.3,3.5-8.7,6.8-12.9,10.4c-5.1,4.4-5.7,6.7-2.7,12.6c0.9,1.7,0.9,3.5,1.1,5.4c-1.1,6.5-4.5,12.2-6.5,18.3
				c-2.6,7.6-5.6,15.1-8.5,22.6c-0.9,2.3-1.8,4.7-4.5,5.5c-24.9,0.9-49.8,0.7-74.8,0.7c-14.7,0-28.9,2.2-42.5,8.2
				c-8.3,3.7-15.4,9.2-22.3,14.9c-2.2,1.8-4.2,3.6-7.1,4.3c-52.3,0-104.6,0.1-157-0.1c-4.8-2.6-5.6-8-8.2-12.1
				c-4.9-7.3-10.3-13.8-17.7-18.8c-5.4-3.6-9.6-8.7-14.9-12.5c-8.7-6.2-17.5-10.4-28.6-10.1c-22,0.5-44-0.2-66,0.2
				c-124.4,2-248.8,0.3-373.2,0.9c-3.6,0-7.1,0.1-10.5-1.2c-2-0.6-3.4-2-4.9-3.4c-18.9-19-37.9-37.8-56.8-56.9
				c-4.9-4.2-9.6-8.7-15-12.4c-15.4-10.8-32.7-15.1-51.2-15.4c-12.6-0.2-25.1-0.2-37.7,0c-15.8,0.2-31.6-0.9-47.4-0.6
				c-2.2,0-4.3,0.1-6.5,0.5c-9.5-0.9-19.2-1.5-27.7-6.7c-12.2-13-24.8-25.4-41.7-32.4c-1.1-0.5-2.2-1.2-3.2-1.8
				c-7-7.9-11.1-17.5-14-27.5C100.9,722.3,85,664.3,68.7,606.5c-3.6-12.9-6.7-26.1-12.2-38.4c-5.3-9.7-13-16.6-24-18.7
				c-8.9-1.7-17.8-1.4-26,3.4c-1.7,1-3.3,2.4-5.5,1.4c0-5.3,0-10.5,0-15.8c1.4-1.3,3.1-1.2,4.8-0.7c14.7,4.5,28.9,3.4,42.6-3.7
				c0.7-0.4,1.5-0.5,2.2-0.8c4.6-2.9,8.5-6.7,12.6-10.2c2.8-2.4,3.7-6,4.6-9.5c1.3-5.2,3-10.1,6.1-14.5c2.9-4.1,2.5-8.9,3.1-13.4
				c1.2-9.7,2.6-19.3,3.8-29c0.8-6.8,0.3-13.9,1.1-20.8c2-17.5,3.4-35.1,6.2-52.5c1.2-7.3,0.5-14.8,1.2-22.2
				c2.9-29,5.5-57.9,15-85.7c6.3-18.7,14.4-36.6,24.3-53.6c1.2-2,2.4-4.1,4.9-4.7c2.1-0.4,3.9,0.4,5.8,1.1
				c12.7,4.4,23.7,1.4,33.2-7.9c1.3-1.3,2.9-2.4,3.9-4c2.1-3.8,3.5-7.8,5.2-11.8c1.3-3.2,3-6,6.2-7.8c8.8-2.9,17.9-4.6,26.3-8.9
				c7.2-3.7,13.9-8.1,19.7-13.7c16.8-16.2,33.1-32.9,49.7-49.3c9.8-9.6,19.4-19.5,32.7-24.8c9.1-3.6,18.3-6.6,28.3-6.5
				c4.5-0.7,6.5,2.2,7.8,5.7c2.6,7.1,4.5,14.5,7.5,21.4c5.5,12.7,16.8,17.6,29,11.1c4-2.2,6.5-5.6,8-9.8c2.5-7,5.5-13.8,8-20.8
				c1-2.9,2.2-5.8,5.5-7c4.3-1.2,8.6-0.2,12.9-0.3c19.7-0.1,39.4,0.7,59-0.4c1.7-0.1,3.4,0,5.1,0c62,0,124-0.2,186,0.1
				c20.6,0.1,39.4-5.1,57-15.7c5.2-3.1,9.6-7.3,13.9-11.5c15.8-15.6,31.4-31.3,47-47C794.5,5.8,798.2,2.6,802.9,0.7z"/>
			<path class="st1" d="M1270.9,0.7c175.3,0,350.5,0,525.8-0.1c3.6,0,4.6,0.5,4.6,4.4c-0.2,77.6-0.1,155.3-0.1,232.9
				c-5.2,6.7-13,9.4-20.3,12.4c-16.2,6.7-33.4,9-50.9,9c-13.3,0-26.6,0.5-39.9-0.9c-7.8-0.8-15.2-3.2-22.3-6.1
				c-10.9-4.6-20.9-10.7-29.3-19.3c-4.5-4.7-9.6-8.7-14.5-13c-2.3-2-3.6-2.2-4.1,1.3c-3.2,23.9-7.1,47.7-10.3,71.7
				c-1,7.4-2.1,14.7-3.1,22.1c-1.2,8.6-4.5,16.4-10.7,22.7c-16.2,18.6-51.6,13-62-8.3c-3-6.1-5.2-12.1-5.8-18.8
				c-0.9-10.9-2.1-21.8-3.2-32.7c-1-10.3-0.5-20.7-2.1-30.9c-2.6-16.6-3.9-33.4-6.3-50.1c-1.2-8.6-2.9-17.1-5.9-26
				c-1.6,9.7-2.7,18.8-4.1,27.9c-2.3,14.8-4.7,29.6-6.9,44.4c-2.5,17.4-7,34.5-7.5,52.2c0,8.6-1.9,16.9-3.1,25.3
				c-2.9,20.7-5.8,41.4-8.8,62c-1.3,8.9-2.7,17.8-4.8,26.5c-2,8.1-6.3,15.1-13,20.4c-1.8,1.5-3.4,3.1-4.9,5
				c-2.6,3.3-5.9,5.5-10.2,5.8c-3-0.1-4.4-1.7-4.4-4.7c0.1-2.8-0.4-5.2-3.5-6.3c-1-0.4-2-0.8-3.1-1.1c-4.3-1.4-5.6-3.3-5.4-7.8
				c1.5-26.3,0.7-52.5,0.5-78.8c-0.1-13.3-3.7-25.9-13.2-36.2c-4.6-5-10.3-8.3-16.2-11.4c-3.5-1.8-6.1-4.1-7.1-8
				c-2.3-10.9-3.3-22-6.2-32.7c-5.8-21.2-13.9-41.3-26.1-59.6c-0.5-0.8-0.9-1.6-1.1-2.5c-0.4-3.6,0.4-6.7,3.3-9.2
				c9.8-8.3,18.4-18,27.6-26.9c6.8-6.6,13.6-13.1,20.8-19.2c28.2-24,56.4-47.9,84.7-71.8c8.1-6.8,16.1-13.6,24.1-20.4
				c4.4-3.8,5.6-7.2,3.4-9.8c-2.1-2.4-5.5-2.1-10,1.4c-8.8,6.8-16.8,14.7-25.4,21.8c-19.4,15.9-38.5,32.2-57.5,48.7
				c-7.4,6.4-10.8,6.4-19,0.7c-6.1-4.3-11.6-9.1-16.8-14.5c-13.8-14.7-27.4-29.6-46.1-38.5c-9-4.3-17.9-8.5-26.7-13
				c-9.9-5-19.3-10.6-28.1-17.2c-5.7-4.3-12.2-7.4-17.7-12c-2.1-1.8-4.4-3.5-6.2-5.6C1270.9,4.2,1269.4,2.8,1270.9,0.7z"/>
			<path class="st0" d="M1594.7,336.5c8-8.5,9.6-19.4,11.1-30.3c4-29,8.2-57.9,12.4-86.8c0.1-0.8,0.4-1.5,0.5-2.3
				c0.3-3.8,1.7-3.2,3.9-1.2c7.5,6.9,14.9,14,22.7,20.5c15.7,13.1,33.9,20.4,54.4,20.8c17.9,0.3,35.9,1.1,53.8-1.5
				c15.3-2.2,29.7-7.1,42.9-15.4c1.5-1,2.9-2.4,4.9-2.4c0,185.1,0,370.3,0,555.4c-2,2.3-4.7,2-7.3,2c-24,0-47.9,0.2-71.9,0
				c-16.7-0.2-33,1-48.6,7.3c-2.3,0.3-3.8-1-5.1-2.6c-9.8-12.5-23.3-14.8-37.9-13.7c-14.7,1.1-23.2,10.2-28.6,23.1
				c-0.6,1.4-1,2.9-1.7,4.3c-1,1.4-1.1,4.1-3.3,4c-2.6-0.2-3.1-2.7-3.8-4.7c-6.4-17.6-12.4-35.4-18.6-53
				c-3.8-10.8-11.4-16.6-22.5-18.2c-4-0.6-7.6,0.8-11.3,1.9c-2,0.6-4,2-6.2,0.9c-0.9-0.8-1-1.9-1-3c0.3-12.2-0.9-24.5,0.1-36.7
				c1.6-19.2,9.1-36,22.6-49.7c30.5-30.8,61-61.7,92.1-92c16.3-15.9,32.5-31.9,48.6-48c14-13.9,24.1-30.2,28.5-49.7
				c4.2-18.5,3-36.5-3.1-54.4c-6.6-19.4-18-35.3-34.2-47.6c-14.7-11-31.4-17-49.8-18.6c-11.5-1-23.3-0.1-34.5-4
				C1600.5,339.8,1596.9,339.6,1594.7,336.5z"/>
			<path class="st2" d="M1270.9,0.7c3.1,6.7,9.4,10.2,15.1,13.9c5.9,3.7,11.5,7.9,17.2,11.7c14.2,9.6,29.7,16.5,45,24
				c10.8,5.3,20.7,11.8,29.8,20.1c10.6,9.8,19.5,21.2,30.7,30.3c3,2.4,6.4,4.4,9.5,6.7c3.5,2.5,6.9,2.3,10.2-0.4
				c5.8-4.8,11.8-9.5,17.4-14.6c12.4-11.4,25.8-21.7,38.6-32.6c8.4-7.3,16.9-14.5,25.3-21.8c2.8-2.4,5.6-4.9,9-6.5
				c3.2-1.5,6.5-1.6,8.8,1.5c2.3,3.1,2,6.7-0.8,9.3c-4.6,4.3-9.6,8.3-14.4,12.4c-13.4,11.4-26.8,22.8-40.3,34.2
				c-12.3,10.3-24.9,20.3-37,30.8c-6.5,5.7-12.5,12-19.4,17.3c-15.8,12.1-28.5,27.5-42.9,41.1c-1.8,1.7-3.7,3.3-5.6,4.8
				c-2.6,2-4.3,4.4-3.9,7.9c-3.5,0.9-6.5,2.7-9.8,4.1c-3.9,1.6-6,0.5-6.8-3.5c-0.5-2.9-1.8-4.9-4.4-6c-12.6-5.5-22.4-14.7-31.7-24.6
				c-10.4-10.9-21.1-21.4-33.6-29.9c-16-10.9-33.6-17.5-53-19.2c-16.7-1.5-33.4-0.4-50.1-0.8c-2.8-0.1-5.5,0.7-8.3,1
				c-4.4,0.5-5.9,2.5-5.5,6.8c0.5,5,0,5.6-5.2,5.6c-20.8,0-41.5,0-62.3,0c-2,0-4,0-6,0.4c-8,0.2-15.7-1.6-23.4-3.5
				c-15.3-3.8-29.9-9.4-42.6-19c-3.5-2.6-4.7,0.1-6.8,1.4c-1.2-0.4-1.8-1.4-1.8-2.5c0.2-5-2.9-7.9-6.2-10.8
				c-10.8-9.3-18.7-21-25.8-33.2c-9.4-16.2-19.5-31.9-28.9-48.1c-1.4-2.4-3.8-4.8-1.8-8C1056.3,0.7,1163.6,0.7,1270.9,0.7z"/>
			<path class="st1" d="M51.2,534.7c-15.4,8.6-31.4,10.2-48,4.1c-0.7-0.3-1.5-0.2-2.3-0.3c0-177.9,0-355.7-0.1-533.6
				c0-3.5,0.8-4.3,4.3-4.3c33.3,0.2,66.7,0.1,100,0.1c4,7,6.7,14.6,9,22.2c3.2,10.4,5.8,21,6,31.8c0.1,11.7,0.7,23.5-0.7,35.2
				c-0.4,3.4-0.2,6.8-0.2,10.2c0,13.2-0.3,26.4,0.1,39.5c0.2,7.8,0.2,15.7,1.5,23.5c0.8,4.7,0.6,9.6-0.1,14.4
				c-0.8,5.9-0.9,11.7,0,17.6c0.4,2.6,0.6,5.2-0.2,7.8c-1.1,3.6-2.8,6.8-4.7,10c-17.1,28.8-28.4,59.8-35.2,92.5
				c-2.8,13.6-3.6,27.6-5.3,41.4c-2.5,20.3-3.5,40.6-6,60.9c-1.9,16.1-3.8,32.2-4.8,48.5c-0.5,8.2-2.7,16.4-3.7,24.7
				c-0.4,3.8-0.6,7.7-1,11.5c-1,9.3-5.5,16.6-11.6,23.2c-1.1,1.1-2.2,2.2-3.1,3.5c-2.5,4-1.1,8.1,3.6,10.8
				C50.6,531,54,531.4,51.2,534.7z"/>
			<path class="st1" d="M363.8,876.1c19.6,19.6,39.2,39.1,58.8,58.7c12,6.7,20.3,17.4,29.8,26.8c7.6,7.5,14.9,15.2,22.9,22.4
				c1.3,1.1,2.6,2.3,3.2,3.9c0.7,2.1-0.4,2.4-2.1,2.3c-69.9,0-139.7,0-209.5,0c-3.6-1.1-6.5-3.3-9.2-5.9c-9.1-9-19.6-16.6-29-25.4
				c-7.2-6.8-14-14-21.9-20c-7.2-5.4-14-11.2-23.2-13c-2.9-0.6-5.4-2.3-8.2-3.2c-7.5-2.5-15.2-3.9-23.2-3.8
				c-13.3,0.3-26.6,0-39.9,0.1c-5.5,0.1-10.8-0.3-15.3-3.9c-7.4-5.4-13.9-11.8-20.7-17.9c-13.6-12.1-27.7-23.7-41.3-36
				c-10.2-9.3-20.2-18.7-30.9-27.4c-1.4-1.1-2-2.7-2.9-4.1c0-91.8,0-183.6,0-275.4c15-12.7,42.6-10.2,54.7,8.8
				c0.8,1.3,1.5,2.7,2.2,4.1c0.8,2.9-1.3,3.5-3.3,3.9c-3.2,0.6-4.8,2.5-5.3,5.6c-0.9,4.7-1.3,9.5-1.6,14.3c-0.2,3.4-0.1,6.8,0,10.2
				c0.5,17.8-0.6,35.6-1.2,53.4c-1,28-1.6,56-1.7,84c0,13.1-2,26.2-1.9,39.4c0.1,4.8,1.1,9.3,3.2,13.4c4.1,8,7.6,16.5,13.3,23.4
				c9.6,11.6,19.6,23.1,33.9,29.7c7.1,3.3,13.7,7.7,21.4,9.9c7.6,2.2,15.4,3.4,23.2,4c15.8,1.4,31.6,1.3,47.3,1
				c37.9-0.8,75.8,1.6,113.7,0.6c3.6-0.1,7,1.4,10.6,0.7c12.6,0.9,23.5,6,33.4,13.4c2.6,1.9,5,4.1,7.5,6.2c4,3.4,6.6,3,9.5-1.3
				C360.9,877.5,361.6,875.7,363.8,876.1z"/>
			<path class="st3" d="M119.1,203.5c0.1-3.6-0.5-7.1-0.7-10.6c-0.3-5.5-0.4-11.1,0.5-16.7c0.7-4.5,0.7-9.2-0.2-13.9
				c-1.4-6.8-0.9-13.8-1.2-20.6c-0.4-8.7,0-17.4-0.1-26c-0.2-19.3,1.4-38.7,1.3-58c-0.1-9.8-2-19.7-4.9-29.2
				c-2-6.5-3.8-13.1-6.9-19.2c-1.3-2.6-1.8-5.6-1.6-8.6c102.7,0,205.3,0,308,0c1.6,2.3,0.1,4.2-0.9,6c-6.6,12.6-13.3,25.1-20.3,37.5
				c-1.7,3-3.3,5.9-4.8,9c-9.1,18.6-24,23.6-43.9,21.3c-16.8,1.4-33.6,0.5-50.5,0.8c-4,0.1-8-0.2-12-0.4c-2.7-0.1-4.8-1-5.6-3.9
				c-0.4-9.9-0.4-10.1-10.6-9.8c-13.2,0.5-25,5.3-35.5,13.3c-10.2,7.7-16.9,17.9-21.7,29.6c-11.8,28.8-24.2,57.4-35.9,86.2
				c-0.5,1.3-1,2.6-1.5,3.9c-2.2,6.8-1.4,8.2,5.6,10c1.5,0.4,3.2,0.6,2,2.8c-10.2,14.3-27.2,19.2-43.5,11.2
				C125.7,216.7,122.1,210.5,119.1,203.5z"/>
			<path class="st4" d="M487.5,0.7c96.5,0,192.9,0,289.3,0c1.1,2.7-0.4,4.5-2.1,6.2c-15.8,15.5-30.5,32.2-47.6,46.4
				c-8.8,7.3-19.5,11.4-30.5,14.3c-10.9,2.9-22,3-33.1,3c-60.3,0-120.6-0.1-180.9,0.1c-11.5,0-22.9-1.2-34.4-1.1
				c-7.9,0.1-15.7,1.4-23.7,0.9c-5.4-0.3-7.2-1.7-8.6-6.6c-0.8-6.8,2.6-12.4,5.4-18.2c3-3.6,4.4-8,6.1-12.2c0.5-0.9,1.2-1.5,2.3-1.5
				c2,0.7,2.5,2.6,3.2,4.3c2.8,6.6,4.7,13.4,7.4,20c2,4.7,4.9,8.1,10.4,8.6c6.3,0.6,10.9-1.9,13.5-7.6c4.9-10.5,8.2-21.7,12.5-32.5
				c2.7-6.6,5.3-13.2,7.7-19.9C485.3,3.3,486.3,1.9,487.5,0.7z"/>
			<path class="st4" d="M1671.9,801.9c8.1-5,17.2-6.8,26.5-7.5c29.5-2.1,59-0.4,88.5-0.9c4.8-0.1,9.6-0.1,14.4-0.1
				c0,65.4,0,130.9,0,196.3c-1.6,0.9-3.3,0.4-5,0.4c-17.4,0-34.8,0-52.2,0c-3.3-0.2-3.6-3.1-4.4-5.2c-5.7-13.7-10.5-27.8-15.8-41.6
				c-16.9-44-33.4-88.2-50-132.4C1672.7,808.1,1669.8,805.4,1671.9,801.9z"/>
			<path class="st2" d="M96.8,913.4c5.1,4.6,11.3,3.8,17.5,3.7c13.6,0,27.3,0,40.9,0c8.5,0,16.4,2.3,24.3,5.3
				c8.2,3.1,16.8,5.2,23.6,11.3c7.4,6.6,15.1,12.6,22.2,19.6c8.1,7.9,16.7,15.6,25.8,22.6c5.2,4,10.2,8.4,14.1,13.7
				c-1.4,1.1-3,0.6-4.5,0.6c-85.1,0-170.2,0-255.2,0c-1.5,0-3.1,0.4-4.6-0.4c0-45.3,0-90.6,0-135.8c2.2-0.9,3.5,0.7,4.8,1.9
				c17.2,15.3,34.5,30.6,51.7,45.9c8.6,7.7,17.6,15,26.3,22.7c13.6,12.1,27,24.6,40.9,36.4c0.4,0.3,0.7,0.6,1.1,0.9
				c4.3,3.5,8,3.6,11.1,0.4c2.9-3,2.5-7.7-1.2-11.5c-4.4-4.6-9.4-8.5-14.1-12.8c-7.4-6.6-15-13-22.4-19.5
				C97.7,917.1,95.9,915.9,96.8,913.4z"/>
			<path class="st1" d="M949,0.7c2.2,7,6.8,12.8,10.5,19c8.4,14,17.2,27.9,25.4,42c6.2,10.5,13.6,20,22.9,27.8
				c4.4,3.7,6.2,7.8,5.3,13.3c2.3,5.3,0.8,10.7,0,16c-3.3,20.1-6,40.2-10.5,60.1c-4.9,12.4-13.7,19.9-27.1,22.1
				c-2.6,0.4-5.2,0.8-7.8,1.3c-13.1,2.8-29.9-7.8-34.7-19.1c-0.7-1.6-1.3-3.2-0.7-4.9c-2.9-12.9-3.2-26.1-4.6-39.2
				c-1.8-17.2-3.5-34.5-5.3-51.7c-0.5-4.6-0.7-9.3-1.4-13.9c-3.1-19-4.7-38.4-11.9-56.5c-2.2-5.5-4.5-10.9-6.8-16.3
				C918,0.7,933.5,0.7,949,0.7z"/>
			<path class="st5" d="M429.8,32.4c-0.3,0.6-0.6,1.3-1,1.9c-2.5,3.7-4,7.9-5.6,12c-2.6,5.3-5.8,10.5-5.6,16.8
				c-0.8,1-0.2,2.2-0.6,3.2c-1.4,6.8-2.6,13.7-7.7,19c-4.6,8.1-7.5,17-10.4,25.7c-3.6,10.9-13.2,16.9-24.9,15.1
				c-7.9-1.2-12.9-6.7-15.8-13.6c-3.3-7.8-5.7-16-8.5-24c-0.9-2.6-2.4-4.3-5.5-3.3c-1.4-2.4-1.8-5.2-2.2-7.9
				c-0.3-1.7-0.5-3.8,2.2-4.1c8.6-0.1,17.3,0.3,25.3-3.7c6.2-3.1,10.8-7.8,14-13.7C393.4,37.9,403,20,412.7,2.1
				c0.2-0.4,0.3-0.9,0.4-1.3c9.3,0,18.6,0,27.9,0c1.8,1.9,1.1,4,0.3,6.1c-2.9,7.4-5.5,15-8.6,22.4C432.1,30.6,431.6,32,429.8,32.4z"
				/>
			<path class="st6" d="M409.4,85.3c2-6.7,4.5-13.2,7.4-19.5c1.9,3.1,3.3,6.2,1.9,10c-0.9,2.4,0.3,4.1,3.1,4.6
				c1.7,0.3,3.4,0.3,5.1,0.3c15.1,0,30.3,0,45.4,0c-14.9,0-29.8,0-44.6,0c-1.2,0-2.5,0.1-3.7,0c-2.4-0.2-5-0.5-5.2-3.5
				c-0.2-3,1.1-5.4,4.3-6.4c1.2-0.4,2.5-0.3,3.7-0.3c10.7,0,21.4-0.4,32.1-0.1c70.8,2,141.6,0.4,212.4,0.8c7.6,0,15.1-1,22.7-2.6
				c12.3-2.6,22.5-9.1,33.4-14.3c0.8-0.4,1.7-0.9,2.3-1.5c8.7-8.6,19-15.5,26.8-25c1.5-1.9,3.5-3.1,5.5-4.2
				c7.6-4.5,10.4-12.9,15.8-19.2c1-1.2,1.8-2.5,2.9-3.6c7.4,0,14.9,0,22.3,0c-1.9,3.6-5.7,5.1-8.4,7.9
				c-15.6,15.7-31.5,31.2-46.9,47.1c-15,15.5-33.3,24.4-54.1,28.4c-3.8,0.7-7.7,1.2-11.5,1.2C591.1,85.4,500.2,85.4,409.4,85.3z"/>
			<path class="st5" d="M96.8,913.4c5.5,6.3,12.4,11.1,18.5,16.7c7.6,6.8,15.3,13.5,22.7,20.5c3.6,3.4,3.6,9.6,0.3,12.9
				c-3.8,3.9-8.7,4.2-12.8,0.5c-15-13.4-29.9-26.9-44.9-40.1c-16.3-14.4-32.8-28.6-49.2-42.9c-10.2-9-20.3-18-30.5-27.1
				c0-8.1,0-16.1,0-24.2c9.9,6.5,17.9,15.2,26.8,22.8c10.8,9.3,20.7,19.6,31.8,28.4C72.4,891.3,84.1,902.9,96.8,913.4z"/>
			<path class="st2" d="M429.8,32.4c3.3-8.8,6.6-17.5,9.8-26.4c0.6-1.7,0.9-3.6,1.4-5.3c15.5,0,31,0,46.5,0
				c-0.2,5.3-2.8,9.8-4.6,14.5c-5.3,13-9.9,26.4-15,39.5c-2.7,7-6.8,13-16.3,12.2c-5.6-0.5-10.3-3.3-12.3-8.8
				C436,49.6,433,41,429.8,32.4z"/>
			<path class="st7" d="M780.6,0.7c-0.2,1.4,0,3.1-0.8,4c-6.2,7.7-10.1,17.1-19.5,22.4c-4.9,2.8-8.1,8.4-12.5,12.2
				c-10.9,9.5-21,20.1-35.6,24.4c-2.3,0.7-4.5,2-6.4,3.6c-1,0.9-2.4,1.9-3.6,1.9c-5,0-9.5,1.8-14.2,3.2c-3.9,1.2-8.8,0.6-13.2,0.6
				C606,73.3,537.2,73.6,468.4,73c-13.7-0.1-27.5-0.3-41.3-0.7c-1.2,0-2.5,0-3.7,0.1c-2.7,0.2-3.2,2.4-3.4,4.3
				c-0.2,2.8,2.2,2.1,3.7,2.1c15.7,0.1,31.3,0,47,0c1.2,0,2.5,0,3.7,0c1.8,0,4,0.3,4,2.3c0,2.3-2.4,1.3-3.7,1.4
				c-16.4,0.1-32.9,0.1-49.3,0c-8,0-8.4-0.7-7.8-8.9c0.2-2.6-0.5-5.2-0.8-7.8c0-1,0-2,0.9-2.8c-0.4,3.4,1.5,4.8,4.5,5.3
				c1.7,0.3,3.4,0.3,5.1,0.3c82.3,0,164.7,0.1,247,0c18.4,0,35.5-5,50.5-15.9c10-7.3,18.2-16.7,27-25.5c7-7,14-14,21-21
				c1.7-1.6,3.3-3.3,4.1-5.5C778.1,0.7,779.4,0.7,780.6,0.7z"/>
			<path class="st8" d="M0.9,989.7c87,0,174,0,261,0c1.1,0,2.2-0.1,3.2-0.2c2.2,0.1,4.3,0.1,6.5,0.2c67,0,133.9,0,200.9,0
				c1.9,0,3.7-0.1,5.6-0.2c1.2-1.5,2.8-1.7,4.6-1.8c1.9-0.1,3.7-0.1,5.6-0.1c148,0,295.9,0,443.9,0c3.5,0,7.2-0.9,10.2,1.8
				c9.9,0.1,19.8,0.2,29.7,0.2c42.8,0,85.7-0.1,128.5-0.1c4.4-2.6,9.2-1.7,13.9-1.8c2.9,0,5.8-0.2,8.7,0.1c3.4,0.9,6.8-0.1,10.2-0.1
				c200.1,0.1,400.3,0,600.4,0.1c3,0,6.3-0.7,8.8,1.8c19.5,0.1,39.1,0.1,58.6,0.2c-0.2,0.3,0.5,1-0.5,0.9c-1.2,0-2.5,0-3.7,0
				c-597.3,0-1194.6,0-1791.9-0.1C3.8,990.6,2,991.7,0.9,989.7z"/>
			<path class="st9" d="M932.3,178.3c1,1.8,2,3.5,2.9,5.3c5,10.4,22.5,20.6,34.7,16.5c4.8-1.6,10-1.7,14.8-3.7
				c8-3.4,12.3-10,16.3-17.1c3.6-0.8,7.3-0.7,11-0.9c22.7-1.4,45.6-0.4,68.3-1.2c22.6-0.8,45.2-0.2,67.8-0.9
				c15.1-0.5,29.1-5,42-13.3c6.7-4.4,13.5-8.8,20.3-13c2.1-1.3,4.2-2.6,6.7-3.1c3.8-0.1,6.2,2.4,8.7,4.8
				c8.3,8.1,16.5,16.4,24.7,24.6c14.5,14.7,32.1,22.6,52.6,24.7c13.6,1.4,26.5-0.8,39.1-5.3c5.9-2.1,8.2-1.5,11.7,4
				c14.6,22.9,23.8,47.7,28.7,74.5c4.4,24,6.8,48.2,7.5,72.4c0.5,18.3,4.5,36.2,4.8,54.4c0.1,7,2.4,14,6.1,20.3
				c3,5,6.9,9.1,12.4,11.5c5.4,2.4,11.1,4,16.4,6.6c1.3,0.6,2.7,0.7,4.1,0.6c4.3-0.5,8.5-1,12.8-0.7c4-0.7,7.2-2.6,9.6-5.9
				c1.2-1.6,2.7-3,4.2-4.3c8.6-7.2,12.7-16.5,14.6-27.6c4.5-27,7.9-54.2,12-81.3c1.2-8.1,2.4-16.2,3.6-24.3c2.1-3.1,4-1,5.8,0.3
				c3.5,2.6,6.7,5.5,10.4,7.7c6.5,3.8,10.7,2.1,12.2-5.2c1-5,1.7-10.1,0.6-15.2c-0.3-1.5-0.4-3.1-0.4-4.6c0.1-2.6-1.1-6.3,2.9-6.7
				c3.6-0.3,3.7,3.4,4.5,6c1.3,12.3,2.1,24.6,3.9,36.8c2.5,17.4,15.4,30.2,33.7,32.3c11.8,1.4,21.9-2.3,30.5-10.5
				c6.3,0.9,12.1,3.6,18.3,4.8c8,1.4,16,0.9,24,1.6c22.7,1.9,42.6,9.9,59.4,25.3c17.2,15.7,27.6,35.4,31.6,58.1
				c4.3,24,0.1,46.8-12.4,67.9c-5.3,9-12.1,16.8-19.4,24.1c-12.4,12.3-24.5,25-37.2,37.1c-35.4,33.6-69.4,68.6-103.8,103.3
				c-12.3,12.4-18.7,28.4-20,45.8c-0.8,11.2-0.2,22.5-0.2,33.8c0,2,0.1,4-0.8,5.9c0,0.2,0.1,0.4,0.1,0.4
				c-4.4,5.4-7.9,11.4-12.1,16.9c-1.7,0.2-3.4,0.3-5.1,0.3c-4.9,0.1-8.2,2.9-10.9,6.7c-3.1-0.2-3.4-2.9-4.1-4.9
				c-6.6-17.8-13.4-35.6-19.9-53.4c-2.4-6.5-5.1-13-7.2-19.6c-4.9-15.1-14.9-24.6-30.5-28c-10.6-1.6-19.7,1.9-28.2,8
				c-7.3,5.3-11.3,12.4-12.9,21.2c-2.4,13.5-8.3,25.9-11.8,39.1c-5.1,4.7-5.8,11.4-7.8,17.4c-0.4,1.3-1.2,2.7-0.7,4
				c1.6,4.4,0.3,8.5-0.9,12.7c-10.4,36.6-20.5,73.4-30.8,110c-0.8,2.9-1.4,6.1-4.6,7.7c-7.5,0.4-15.1-0.5-22.6,0.5
				c-2.2,0.3-4.3-0.7-4.3-3.7c0.7-2.5,3.2-3.2,4.9-4.6c2.1-1.7,3.4-3.8,2.3-6.4c-1.2-2.8-3.7-3.7-6.5-3.3c-2.8,0.3-5.3,1.7-7.8,2.8
				c-8,3.5-15,8.6-22.6,12.8c-2.2,1.2-4.3,3.3-7.2,2c-2.3-1.4-4.8-1.9-7.5-1.9c-74.1,0-148.3-1.6-222.3,0.5
				c-63.5,1.8-127,0.3-190.5,1.2c-11.6,0.2-23.1-2.8-33.6-7.9c-10-4.9-20.9-7.9-30.3-14c-4.2-2.7-8.1-5.5-11.3-9.4
				c-2.6-3.3-5.5-6.3-9.5-8c-2.5-1-4.2-3.1-5.8-5.2c-2.5-3.2-5.2-6.1-8.8-8.2c-4.1-2.4-6.5-6.5-9.4-10.1
				c-5.2-6.4-10.3-12.7-16.1-18.5c-7.4-7.4-14.6-15.5-20.4-23.8c-7.9-11.3-18.4-19.5-27.2-29.6c-7.9-9.1-16.7-17.7-26.6-24.9
				c-4.2-3.1-7.2-8-10.6-12.2c-3.6-4.4-6.9-9.1-11.3-12.9c-5.1-4.5-8.4-10.3-12.7-15.3c-6.7-7.8-14.8-14.3-20.9-22.8
				c-7.4-10.3-18.4-16.3-29-22.8c-19.6-11.9-41.1-18.5-63.6-22.2c-9.9-1.6-19.6-4.5-29.6-5.8c-2-0.3-4-0.5-6-0.5
				c-45,0-89.9,0-134.9-0.1c-5.1,0-9.7,1.8-14.5,2.8c-7.9,1.7-15.7,0.3-23.5,0.1c-18-0.3-36-0.1-54-0.1c-10.3,0-19.6-3.4-28.6-8.5
				c-15.2-8.6-24.3-22.6-33-36.8c-5-8.1-10.9-15.8-13.6-25.2c-2.5-8.6-4.6-17.3-7-25.9c-3.8-13.2-6.1-26.6-6-40.2
				c0.2-28.3,5.2-55.8,18.3-81.1c5.6-10.9,13.7-20.5,20.9-30.5c11-15.3,25-27.8,38.7-40.6c3.5-3.3,6.8-6.8,10.2-10.2
				c12.9-12.6,25.8-25.3,38.8-37.9c6.9-6.6,12.9-14.1,20.5-20.1c4.9-3.9,8.4-9.8,13-14.4c8.6-8.5,16.9-17.2,25.6-25.5
				c4.7-4.5,7.7-10.3,13.1-14.3c14.8-10.9,31-17.9,49.1-20.6c6.2-0.9,12.3-0.8,18.5-0.8c132.7,0,265.4,0.3,398.2-0.3
				c31.4-0.1,62.9-0.2,94.3-0.7C926.9,177.4,929.6,177.7,932.3,178.3z"/>
			<path class="st3" d="M1444.9,661.2c14.6,2.2,24.8,10.1,30,23.9c9.3,24.4,18.3,49,27.4,73.4c1.2,3.3,2.6,6.6,3.9,9.9
				c4.4,3.1,4.5,8.3,6.3,12.7c1.7,5.1,4.1,10,6,15c4.7,12.6,8.8,25.5,14.3,37.8c8.4,18.7,14.7,38.2,22.2,57.2
				c1.8,4.4,2.7,4.8,7.3,1.9c17.4-11.2,28.3-26.9,32.4-47.3c0.4-2.1,0.9-4.2,0.9-6.4c-0.1-8.9-0.6-17.8,2.8-26.3
				c3-10.4,8.8-18.5,17.9-24.5c4.6-3,9.5-3.8,14.5-4.1c11.5-0.6,22.8,0.3,32.5,7.9c3.5,2.7,5.9,6.2,8.6,9.6
				c10.3,24.5,18.9,49.7,28.4,74.5c13.4,34.7,26.4,69.6,39.5,104.5c1.1,2.9,3.2,5.4,2.9,8.7c-16.1,0.1-32.2,0.1-48.3,0.1
				c-188.7,0-377.5,0-566.2,0c-1.7,0-3.4-0.1-5.1-0.1c-0.4-2.9,1.8-4.2,3.7-5.3c10.3-6,21.2-10.2,33.2-10.4
				c20.4-0.3,40.8-0.1,61.2-0.1c5.6,0,5.6,0,6.1-5.7c0.4-4.7,2.3-6.5,7.1-6.7c4.1-0.2,8.3,0.5,12.4-0.4c3.4-6.1,5.3-12.7,7.8-19.2
				c3.4-8.8,6.6-17.6,9.9-26.4c0.3-5.1,1.7-9.9,3.6-14.6c5-12,19.2-16.3,30.2-9.1c3.9,2.9,6.2,6.7,7.9,11.2c3.2,8.9,6,17.9,9.4,26.7
				c1.6,4,1.9,4.1,4.9,1.1c8.5-8.4,14.8-18.3,19.5-29.2c0.9-2.1,1.5-4.5,4-5.5c1.7-0.4,3,0.5,4.4,1.1c4.9,2.3,7.3,1.3,9.3-3.8
				c1.4-3.5,2.3-7.1,3.2-10.7c7-25.7,14.2-51.3,21.4-77c7.8-28,15.4-56.2,23.7-84.1c2.8-9.5,5.8-18.9,8.6-28.4
				c3.2-11.1,10.3-18,22-20.1c6.5-1.2,6.7-1.9,6-8.4C1442.3,662.8,1441.6,660.5,1444.9,661.2z"/>
			<path class="st10" d="M942.4,989.6c-7.9,0.1-15.8,0.2-23.7,0.2c-145.2,0-290.3,0-435.5,0c-1.7,0-3.4-0.1-5.1-0.2
				c-6.5-6.4-13-12.7-19.4-19.1c-3.6-3.6-7.1-7.3-10.7-10.9c-6.6-6.7-12.9-13.7-20.3-19.5c-1.9-1.5-4-2.9-5.2-5.2
				c2.2,0.8,4.5,1,6.8,1c121.2,0,242.5,0.3,363.7-0.3c27.4-0.1,54.8,0,82.2-0.8c10.3-0.3,18.5,3.8,26.6,9.3
				c8.1,5.7,15.4,12.5,22.9,18.8C933,969.7,939,979,942.4,989.6z"/>
			<path class="st2" d="M310.7,862.3c-32.8-1.8-65.7,0.2-98.5-1.2c-17.4-0.7-34.6,1-51.9,0.4c-11.3-0.4-22.6-0.7-33.7-2.3
				c-11.1-1.7-21.3-6.2-31.6-11.3c-13.6-6.7-23.3-17.1-33.7-27.1c-3.3-3.2-5.3-7.2-7.6-11.1c-4.6-7.9-9.8-15.5-12.1-24.4
				c-1.9-7.5-0.8-15.4-0.5-23.1c0.3-7.4,1.4-14.8,1.5-22.2c0.3-13.5-0.1-27,0.1-40.5c0.4-23.2,1.4-46.4,2.1-69.6
				c0.4-12.7,0.3-25.4,0.6-38.1c0.2-5.4,0.9-10.8,1.6-16.1c0.6-4.3,2.8-6.8,7.4-6.6c1.5,0.1,2.8-0.4,3.2-2c5,9.7,7.5,20.2,10.4,30.6
				c15.9,56.7,31.8,113.3,47.7,170c3.3,11.7,6.7,23.2,13.2,33.6c1.1,1.8,2,3.9,3.9,5.1c12.9,13.4,26.9,25.2,43.8,33.4
				c8.3,4.9,17.8,5.3,27,6.6c8.5,0.8,16.9,0.2,25.4,0.4c5.1,0.1,7.6,1.9,7.9,7c0.3,3.9,2.1,4.5,5.3,4.5c18.5-0.1,37.1,0,55.6,0
				c3.3,0,6.5,0.2,9.6,1.1C309.1,859.9,310.7,860.2,310.7,862.3z"/>
			<path class="st4" d="M344.2,73.2c-1.5,1.8-0.9,3.7,0,5.5c1.1,2.2,1.3,4.3,0.1,6.5c-19.5,1-36.3,8.2-50.3,21.9
				c-11.9,11.7-23.6,23.5-35.5,35.2c-10.9,10.7-20.9,22.5-33.6,31.2c-11.2,7.6-23.5,12.3-36.9,14.2c-2.3-2.2-1-4.6-0.1-6.9
				c3.2-9,6.9-17.9,10.6-26.7c5.6-13.3,10.8-26.7,15.8-40.2c7.1-18.9,19.1-33,38.6-40c3-1.1,6-1.8,9-2c4.9-0.3,9.5-2.4,14.4-2.3
				c0,1.9,0.6,3.5,2.8,3.5c19.9-0.4,39.8,1.1,59.7-0.7C340.7,72.3,342.6,72,344.2,73.2z"/>
			<path class="st5" d="M119.1,203.5c1.8,0.3,2.2,1.9,3,3.2c3.1,4.8,7.1,8.7,11.9,11.7c-2.8,1-3.5,3.8-4.8,6
				c-11.1,19.3-19.9,39.5-26.1,60.9c-4.7,16.5-7.8,33.4-9.4,50.5c-1.1,12.8-2.9,25.5-3.7,38.3c-1.3,22.7-6.2,45.1-7,67.8
				c-0.6,17.3-4.2,34.1-5.1,51.3c-0.1,1.4-0.3,3-1,4c-4.5,6.5-6.3,14-8.9,21.3c-2.8,7.9-10.4,11.8-17,16.2c0.9-2.4-0.8-2.4-2.3-2.8
				c-7-1.8-9.4-9.6-4.5-14.9c3-3.3,6.2-6.5,8.7-10.2c3.6-5.6,4.9-11.9,5.5-18.5c1-10.3,2.1-20.4,4.2-30.6c1.2-5.8,0.8-12.3,1.5-18.4
				c2-18.4,4.1-36.9,6-55.3c1.3-12.4,2.4-24.9,3.3-37.3c2.6-39,11.7-76.4,28.5-111.8C107.1,224.1,113.1,213.8,119.1,203.5z"/>
			<path class="st11" d="M276.3,69.7c-4.3,4.2-10.1,3.5-15.3,4.3c-10.3,1.6-18.8,6.5-26.7,12.9c-9.7,7.8-14.3,18.7-19,29.8
				c-6.9,16.7-12.9,33.7-20.4,50.2c-3,6.6-6.1,13.5-7,20.9c-5.6,5.3-6.1,13.4-10.4,19.4c-0.2-1.6-1.3-1.2-2.4-1.1
				c-6.7,0.2-10-3.9-7.7-10.1c5.5-14.8,11.4-29.4,17.9-43.7c5.3-11.7,9.6-23.8,14.6-35.6c5-11.6,8.9-23.8,17.4-33.6
				c14.4-16.5,32.4-24.7,54.4-23.7C276.6,59.6,278.2,63.8,276.3,69.7z"/>
			<path class="st12" d="M310.7,862.3c-4-1.3-8-1.8-12.2-1.8c-19.9,0-39.9,0-59.8,0c-2.7,0-5.8,0.9-3.7-4.2c1.9-4.6-1.8-8.8-6.9-8.9
				c-6.5-0.1-13,0-19.5,0c-1.7,0-3.4,0.3-4.9-0.8c32.2,0,64.5-0.7,96.7,0.1c25,0.6,46.5,10.3,63.3,29.4c-1,0.6-1.4,1.5-1.8,2.6
				c-2.3,6.4-7.5,7.7-12.5,3.1c-7.8-7.2-16.3-13.3-26.5-16.5C318.9,864,315,862.5,310.7,862.3z"/>
			<path class="st5" d="M1246.7,960.9c-3.3,1.9-7,0.7-10.5,0.9c-5.9,0.3-9.1,3.6-6.9,9c2.2,5.4-0.7,4.9-4.1,4.9
				c-20.6,0-41.2-0.1-61.9,0c-15,0.1-28.6,4.4-40.5,13.8c-7.4,0-14.9,0-22.3,0c14.8-16.2,33.1-25.9,55-27.7
				C1186,959.5,1216.4,961.4,1246.7,960.9z"/>
			<path class="st13" d="M1297.9,893c-10.1-4.9-19.5-3.6-25.6,3.8c-2.8,3.4-3.3,7.9-5.2,11.8c-1,2.2-1.2,4.8-2.7,6.8
				c0-1.7-0.2-3.3-1.4-4.7c-3.3-4.1-3.2-8.1,0.9-11.8c5.5-4.9,11.4-9.4,17.2-14.1c0.7-0.6,1.3-1.3,2-1.9c11.7-6,22.1-14.2,34.6-18.8
				c3.9-1.4,7.2-1.2,10.3,1.8c2.3,2.3,2.2,5.2,1,7.7c-1.5,3.1-4.6,4.4-7.7,5.6c-6,5.8-14,8.6-20.6,13.4
				C1299.8,893,1298.8,893,1297.9,893z"/>
			<path class="st14" d="M176.8,839.9c-9.7-1.8-17.2-7.9-25-13.4c-6.9-4.8-12.2-11.3-17.6-17.6c-0.6-0.7-0.8-1.6-1.2-2.4
				c8.7,4.1,17.3,8.3,24.7,14.5C164.6,826.8,170.9,833.2,176.8,839.9z"/>
			<path class="st5" d="M1446.7,439c-7.6,2.7-15.2,4.2-22.8-0.2c-2-1.2-4.3-1.8-6.5-2.5c-13.1-4.1-20.4-13.6-22.5-26.5
				c-2.8-17.3-6-34.9-6.2-52.3c-0.2-18-2.2-35.8-3.8-53.5c-3.3-37.2-12.1-73-33.3-104.7c-2.1-3.1-3.6-3.8-7.4-2.4
				c-36.2,13.1-68.4,6.8-96.2-20.2c-10-9.7-19.1-20.4-30.1-29c-5.7-0.9-9.3-5.4-13.9-8.1c-15.3-9-31.5-14.1-49.4-14.1
				c-20.8,0.1-41.6,0.1-62.3,0c-2.4,0-5.5,0.8-6.5-2.7c22.8,0,45.6-0.1,68.3,0c3.1,0,5.3,0.3,3.6-4.3c-1.7-4.5,1.8-8.3,6.8-8.8
				c17.6-1.8,35.3-1.3,52.9-0.7c26,1,49.2,10.2,69.5,27c11.4,9.4,21.3,20.2,31.9,30.5c6.8,6.7,14.3,12.2,22.9,16.3
				c3.8,1.8,7.1,3.8,6.6,8.9c-0.3,2.5,1.2,2.9,3.3,1.9c1.9-1,4-1.9,5.7-3.1c2.1-1.6,3.9-1.5,5.8,0.2c7.4,11.3,13.9,23,18.8,35.6
				c6.8,17.4,12,35.2,13.9,53.8c0.2,1.8,0.6,3.7,0.8,5.5c6,22.1,6,45,8.6,67.6c1.9,16.9,2.9,33.8,5.4,50.6c1.5,10.6,8.4,17,18,21
				c4.1,1.7,8.2,3,12.7,3.2c3.2,1.8,4.3,4.6,3.8,8C1444.7,437.4,1444.2,439,1446.7,439z"/>
			<path class="st2" d="M1441.1,427.8c-9.6,0.4-18.4-1.5-25.3-9c-4.7-5.1-7.6-10.8-8.2-17.9c-1.4-17.4-2.9-34.7-4.8-52
				c-2-19.4-3.5-39-6.3-58.3c-0.2-1.7-0.1-3.4-0.2-5.1c1.3,6.9,8,7.5,12.6,10.3c14.6,8.7,22.2,21.7,23.6,38.1
				c2.4,27.3,0.5,54.7,1,82c0,0.9-0.1,1.9-0.2,2.8c-1.2,7.1-1.2,7.2,6.1,8.4C1440.1,427.1,1440.6,427.5,1441.1,427.8z"/>
			<path class="st0" d="M1526.7,277.9c-0.4-0.8-0.8-1.7-1.3-2.4c-0.9-1.2-1.8-3-3.5-2.5c-2.3,0.6-0.8,2.6-0.7,4
				c0.3,7,1.5,14,0.1,21.2c-1.8,9.4-7.6,12.3-15.6,7c-3.7-2.5-7.1-5.4-10.6-8.1c-1.3-1-2.3-2.7-4.3-1.4c-1.9-8,0.7-15.7,2.1-23.4
				c2-10.8,3.1-21.8,5.2-32.5c4.5-23.9,7.3-48,11-72.1c0.1-0.8-0.2-1.9,2.3-2.9C1521.3,201.9,1524.2,239.9,1526.7,277.9z"/>
			<path class="st5" d="M1598.4,813c-2,15.1,0.8,30.6-5.3,45.3c-6.8,16.3-17.3,29.1-32.6,37.9c-3.7,2.1-5.4,1-6.8-2.8
				c-5.8-16-11.2-32.2-17.9-47.8c-8.2-19-15.1-38.5-22.3-57.9c-0.8-2.1-2.7-3.8-2.4-6.4c1.9-1.2,2.9-3,3.7-5.1
				c1.4-3.9,2.8-7.8,4.4-11.6c0.6-1.5,1.2-3.2,3.1-3.7c2.2-6.9,5.8-12.8,12.1-16.7c9.6-5.1,19.3-6.3,29.2-0.8
				c8.4,4.6,11.6,12.7,14.5,21.2c5.8,17.4,12.1,34.7,18.3,52.5C1598.1,815.9,1597,813.8,1598.4,813z"/>
			<path class="st15" d="M1690.4,569.6c0.4,2.8-0.7,4.6-2.5,6.4c-12.6,12.5-24.9,25.3-38.1,37.2c-3.3,3-6.3,6.4-9.6,9.4
				c-3.3,3-7.7,2.7-10.7-0.4c-3.7-3.8-4.2-7.7-0.9-11.1c13.5-14,26.7-28.3,41.6-40.9c2.3-2,4.5-4.3,6.6-6.5c2.8-2.9,6.4-2.7,9.5-1.4
				C1689.3,563.5,1691.2,566.1,1690.4,569.6z"/>
			<path class="st0" d="M1085.8,122.7c1.6,1.3,3.6,0.8,5.4,0.8c22.5,0,44.9-0.3,67.4,0.1c21.6,0.4,40.6,8.6,57.5,21.9
				c0.7,0.6,1.2,1.4,1.9,2.1c-12.6,8.1-24.8,16.9-38.3,23.6c-9.8,4.8-20.6,6.5-31.4,7.2c-1.4,0.1-2.8,0-4.2,0
				c-37.5-0.6-74.9,1.3-112.4,1.2c-8.1,0-16.4-0.3-24.5,1.5c-2.3,0.5-4.2-0.8-6.1-1.8c1.3-7.4,2.8-14.8,3.8-22.2
				c2.3-17.5,7.1-34.7,7.6-52.5c0-0.6,0.5-1.1,0.7-1.7c0.1-0.1,0.3-0.2,0.3-0.3c1.8-6.4,1.8-6.3,7.3-2.4
				C1040.3,113.9,1062.2,120.7,1085.8,122.7z"/>
			<path class="st7" d="M423.3,46.3c0.8-4.5,2.1-8.7,5.6-12C427.4,38.4,425.7,42.5,423.3,46.3z"/>
			<path class="st5" d="M1444.9,661.2c-1.8,0.6-1.2,1.5-0.7,2.8c2.2,6.3,0.5,9.5-6,10.5c-11.9,1.8-19.2,8.5-22.2,20
				c-5.7,22-13.3,43.3-18.9,65.3c-6.6,26-14.6,51.8-21.9,77.6c-4.8,17-9.4,34-14.1,51c-0.6,2.1-1.2,4.2-1.9,6.2
				c-2.3,6.3-7,7.7-12.5,3.8c-1-0.7-1.8-1.7-3.2-1.7c-2.2-5.8,0.3-10.5,3.7-14.9c6.1-21.4,12.3-42.8,18.4-64.3
				c5.4-18.9,10.6-37.8,15.9-56.7c0.7-2.5,1.2-4.8-0.2-7.2c-0.7-1.3-0.7-2.7-0.1-4c2.1-4.9,3.1-10,4.7-15.1c0.2-0.8-0.6-4,2.4-1.8
				c1.1,0.8,1.4-0.7,1.5-1.6c3.3-14.8,10.1-28.6,12.7-43.6C1405.7,669.8,1430.9,656.7,1444.9,661.2z"/>
			<path class="st0" d="M1347.2,881.8c-1.2,5-2.5,9.9-3.7,14.9c-4.9,14.3-12.8,26.6-23.6,37.2c-2.9,2.8-4,2.3-5.2-1.2
				c-3.1-9.2-6.6-18.3-9.6-27.6c-1.5-4.7-3.6-8.8-7.2-12.2c6.9-6,14.9-10.4,23.3-13.9c-0.7,3.6,1.9,2.7,3.7,2.5
				C1332.3,880.4,1339.8,880.5,1347.2,881.8z"/>
			<path class="st16" d="M1522.2,760.9c-2.3,6.3-4.6,12.6-7,18.9c-0.7,1.9-1.5,4.6-4.2,1.5c-1.6-4.3-3.2-8.6-4.8-12.9
				C1507.1,761.5,1514.4,758.1,1522.2,760.9z"/>
		</g>
	</g>
</g>
<g id="Fly_1_">
	<g>
		<path class="st17" d="M207.2,766.6c-0.5,0.1-0.9,0.2-1.4,0.4c-1.1,1.1-0.5,2,0.2,2.9c0.9,1.1,2,1.8,3.3,2.3c0.4,0.1,0.8,0,1.2,0.1
			c3.3,0.9,5.5-0.2,7.7-2.8c4.7-5.7,11-8.5,18.4-8.6c1.5,0,2.7,0.1,2.3,2.3c-0.3,1.5,1,1.7,2.2,1.8c2.5,0.2,5.1,0.2,6.6,2.7
			c2.5,2.3,2.9,5.3,3,8.4c0.2,5.8,0.5,11.6,1.2,17.3c0.2,1.4,0,2.7-0.6,4c-1.5,3.3-4.3,4.5-7.6,5.2c-0.8,0.2-1.6,0-2.2,0.8
			c-0.2,1.4,0.8,2,1.9,2.4c1.1,0.4,2.2,0.9,3.4,1.2c2.8,0.2,5.3-1.2,8-1.7c1.2-1.8,3-3.2,4-5.2c1.2-3.3,1-6.6,0.6-10
			c-0.3-3.3-0.5-6.7-0.6-10.1c-0.1-3.2-0.5-6.4-0.7-9.6c-0.1-2.3-1.2-4.3-2.6-6.1c-1.1-1.4-0.7-2,0.9-2.5c5.2-1.4,12.7,2,15.7,7.1
			c1.2,2,1.5,4.4,3,6.2c0.1,0,0.2,0.1,0.2,0.1c2.4-0.7,4.7-0.5,6.7,1.3c0.3,0.2,0.8,0.1,1.1-0.1c1.1-1.8,0.5-3.7,0.1-5.6
			c-0.3-1.7-0.9-3.4-1.7-5c-0.8-1.3-0.7-2.5,0-3.8c-5.2-2.5-9.8-6.1-15.3-7.9c-2.7-0.9-4.6-2.9-6.9-4.4c-1.1-0.7-0.4-1.7,0-2.6
			c1.4-3.1,1.5-6.3,0.1-9.3c-1.1-2.3-3.1-2.4-4.5-0.3c3.3,1.1,4.3,2.6,3.6,6.2c-0.5,2.6-1.1,5.2-3.6,6.8c-0.7,0.5-1.6,1.1-2.3,0.1
			c-0.7-0.9,0-1.6,0.7-2.2c1.1-0.8,2.5-1.4,1.6-3.2c-1.5-0.3-2-1.1-2-2.6c0-1.2,0.4-2.8-1.5-3.1c-1.3,0.9-0.9,2.3-1,3.5
			c-0.1,2.7-0.8,5.2-3,7.1c-0.4,0.4-0.8,0.7-1.4,0.9c-0.7,0.2-1.5,0.4-1.9-0.4c-0.4-0.7-0.1-1.3,0.4-1.7c0.8-0.8,1.7-1.4,2.5-2.3
			c1.6-1.8,2-3.8,1.2-6c-0.3-0.9-0.8-1.8-2.1-1.4c0.2,1.2,0.6,2.3,0.7,3.5c0.1,1.8-0.7,2.8-2.7,2.8c-2.1,0-4.2,0.2-6.2,0.4
			c-2-0.5-3.9-0.6-5.1,1.5c-0.6,0.3-1.2,0.7-1.8,1c-0.9,1.4-2.5,1.6-3.8,2.3c-2,0.3-3.6,1.4-4.9,2.9c-1.2,1.3-2.3,1.6-4,0.8
			c-2.6-1.2-5.5-1.1-8.2,0c-0.7,0.6-1.7,1.2-1.3,2.3c0.4,1,1.4,0.9,2.3,0.9c1.5,0,2.8,0.5,4,1.5c1,0.8,1.5,1.9,1.2,3.2
			c-0.3,1.4-0.9,2.7-1.7,4c-0.8,1.2-2.1,1.6-3.4,1.2C209.7,766.9,208.4,766.9,207.2,766.6z"/>
		<path class="st18" d="M194.7,839.1c2.6-0.4,4.8,1,7.2,1.5c14.7,3.1,29.6,2.8,44.4,1.9c0.8-0.1,1.6,0,2.4,0c0.3-0.9-0.1-1.5-0.8-2
			c-3.4-1.6-4.2-4.4-2.4-7.7c1.2-2.3,1.8-4.8,2.4-7.3c0.2-0.7,0.2-1.4-0.2-2.1c-0.2-0.2-0.4-0.3-0.7-0.3c-0.2,0-0.4,0-0.5,0.1
			c-1.6,2.9-4.4,2.3-7,2.3c-5,0-10,0.1-15,0c-5.5-0.1-10.9,0.5-16.4,1.2c-1.1,0.2-2.2,0.2-3.3-0.3c-1.6-0.3-2.2,0.7-2.5,1.9
			c-0.3,1.2-0.7,2.3-1.7,3.1c-1.7,1.9-4.2,3-5.5,5.4C194.8,837.5,194,838.2,194.7,839.1z"/>
		<path class="st19" d="M189.8,773.1c-2.6,3.6-5.8,6.6-9.8,8.6c-1.7,0.9-2.1,2.5-2.4,4.2c-0.2,0.9-0.6,1.6-0.8,2.5
			c-0.4,2.8-1.4,5.4-2.2,8.1c-0.6,1.9-0.8,3.9-1.6,5.8c-0.6,2.5-1.4,5-2.1,7.6c-0.4,1.3-0.5,2.6,0,4c0,0.5,0,1-0.1,1.6
			c-1.5,1.4-2.1,2.9-1.1,4.9c1.3,2.6,3.5,2.4,5.7,2.1c3.1,0.1,3.5-2.8,5-4.5c1.1-0.3,1.5-1.1,1.7-2.1c0.3-1.6,0.8-3.2,1.1-4.8
			c0.5-4.1,1.8-8,3.3-11.9c1.1-3,1.7-6.2,2.7-9.2c0.5-4.8,2.6-9.3,3.2-14.1C192.2,774.2,191.7,772.9,189.8,773.1z"/>
		<path class="st20" d="M247.8,841.1c0.3,0.4,0.7,0.9,1,1.3c5.1,5.1,10.2,10.2,15.2,15.4c1.9,2,3.7,3.4,6.5,1.6c0.7-0.5,1.3,0,2,0.3
			c2.7,1.2,4.9,0.1,5.4-2.7c0.9-5.4,1.6-10.8,2.3-16.2c0.3-0.6,0.3-1.4,0.8-2c1.3-2,0.8-4-0.6-5.8c-1-1.4-2.5-1.7-4.1-1.4
			c-2.3,0.5-3.2,2.1-3.6,4.2c-0.1,0.3,0,0.6,0,0.9c-0.2,4.8-1,9.6-1.6,14.3c-0.1,0.5-0.4,0.7-0.8,0.7c-4.1-3.5-7.6-7.4-11.4-11.2
			c-1.2-1.7-2.7-3.1-4.3-4.4c-0.7-0.3-1-1-1.5-1.5c-0.3-0.3-0.5-0.6-0.8-0.9c-1.5-1.6-3.4-2.4-5.6-1.8c-1.5,0.4-2.2,1.5-2.4,3
			c-0.2,2.3,0,4.4,2.5,5.4C247.3,840.7,247.6,840.9,247.8,841.1z"/>
		<path class="st21" d="M290.2,816.8c9,4.4,18.1,8.9,27.1,13.3c0.7,0.3,1.3,0.6,1.9,1c2.3,1.2,4.4,1.1,5.6-1.4c1.1-2.3,0-4-2.2-5.1
			c-7.9-4-15.7-8.4-23.9-11.7c-6.6-2.7-9.9-7.4-11.6-13.9c-1.2-0.9-2,0-2.7,0.7c-0.9,1.4-0.8,2.9-0.4,4.3c1.1,3.7,2.7,7.2,4.1,10.7
			C288.6,815.7,288.9,816.8,290.2,816.8z"/>
		<path class="st22" d="M281.2,762.1c-2.8,0-2.9,0.8-1.6,3.2c1.9,3.3,3.4,6.9,2.7,10.9c-0.7,0.9-0.3,1.8,0.1,2.7
			c0.3,0.5,0.6,0.9,0.9,1.4c2.3,3.5,2,4.1-2.1,4.9c-2.1,0.8-3.2,2.4-3.2,4.7c0.2,0.4,0.4,0.7,0.8,0.8c1.8,0.5,2.8,1.6,2.9,3.5
			c0,0.4,0.3,0.7,0.6,1c0.5,0.3,1.1,0.2,1.2-0.3c0.7-1.7,2.1-1.9,3.7-2.2c4-0.9,7.5-2.9,10.5-5.6c3.4-10-3.2-21.7-13.7-24.2
			C283.1,762.5,282.2,762.3,281.2,762.1z"/>
		<path class="st23" d="M175.4,822.3c-4.5-0.3-6.3-3-4.6-7c-10.1,5.9-20.8,10.6-31.1,15.9c-2.3,1.2-4,2.8-2.5,5.5
			c1.4,2.5,3.7,2.1,5.9,1c9.1-4.6,18.3-9.1,27.4-13.8C172,823.1,173.7,822.7,175.4,822.3z"/>
		<path class="st24" d="M177.7,788.4c0.7-2.2,1.5-4.5,2.2-6.7c-4.2,1.2-8.4,1.9-12.7,0.7c-1.3-0.4-1.8,0.7-2.7,1.2
			c-5.6,11.3-3.4,22.4,6.2,30.2c1-3.8,2-7.6,3-11.3c0.5-1.5-0.5-2-1.6-2.4c-3.4-1.3-4.5-2.6-4-5.1c0.6-2.8,2.8-4.6,6-4.5
			C176,790.6,177.2,790.1,177.7,788.4z"/>
		<path class="st25" d="M194.7,839.1c1.7-2.7,3.8-4.9,6.4-6.7c-0.6-0.9-1.4-0.6-2.2-0.5c-3.2,0.3-4.3-0.9-3.8-4.1
			c0.8-4.3,2.2-8.6,3.2-12.9c0.3-1.3,1.1-2.8-0.4-4c-2.1,1-2.7,2.8-1.9,5.4c-1.5,6.4-2.1,13-7.2,18.2c-4.7,4.8-8.6,10.4-12.9,15.6
			c-1.7,2.1-3.2,4.3-0.6,6.5c2.7,2.2,4.6,0.2,6.4-1.9C186.1,849.5,190.4,844.3,194.7,839.1z"/>
		<path class="st26" d="M286,826.1c6.1,7.5,12.2,14.9,18.3,22.4c1.5,1.8,3.4,1.9,5.1,0.5c1.7-1.4,1.8-3.3,0.4-5
			c-6.1-7.5-12.3-14.9-18.4-22.3C289.4,822.8,287.4,824.2,286,826.1z"/>
		<path class="st27" d="M273.5,837.2c0-2.2,0.9-3.7,2.9-4.5c1.4-0.5,2.7,0.2,3.6,1.2c1.3,1.4,1.5,3,0.6,4.8
			c-0.3,0.6-0.2,1.4-0.3,2.1c2.2-2.5,2.1-5.2,1.2-8.3c-1.7-5.6-3.2-11.3-4.6-17c-1.2-4.6-3.1-5.9-7.6-4.8c-0.6,0.1-1.2,0.1-1.7,0.6
			c-2.6,2.9-1.6,6-0.4,9.1c1.9,2.7,2.3,5.9,3.2,9c0.6,2.1,0.9,4.2,1.7,6.2C272.3,836.3,272.3,837.4,273.5,837.2z"/>
		<path class="st28" d="M286,826.1c2.5-0.7,4.4-2,5.4-4.4c-0.4-1.6-0.8-3.2-1.2-4.9c-1.8-4.5-3.5-9.1-5.3-13.6
			c-0.4-1.1-0.2-2.2,0.2-3.3c0-0.8,0.1-1.6-1-1.6c-0.8,0.7-1.1,1.6-1.4,2.5c-0.7,1.9-2.3,2.2-4,2.4c-1.1,0.1-2.3,0-3.2,0.6
			c-0.8,0.5-1.3,1.2-0.8,2.2c1.3,0.2,1.5,1.3,1.9,2.2c1.5,4.1,3.2,8.2,4.6,12.3C281.9,823.3,283.4,825.2,286,826.1z"/>
		<path class="st29" d="M196.1,816.3c0.6-1.7,1.2-3.4,1.8-5.2c1.9-1.4,2.6-3.9,1.9-6.4c-3.2-4-5.3-8.6-8.2-12.8
			c-0.8-1.1-1.4-2.7-3.2-2.4c-1,3-1.9,6-2.9,9c-0.5,2.9-0.2,3.3,2.7,3c3.4-0.2,6,2.3,5.9,5.7c0,1.4-0.6,2.5-2,3
			c-1.9,0.7-3.9,1.1-5.8-0.1c-0.2-0.1-0.3-0.4-0.5-0.5c-2.1-1.9-2.5-1.8-3.6,0.9c-0.5,2.4-1.1,4.8-1.6,7.2
			C185.8,819.3,190.9,817.2,196.1,816.3z"/>
		<path class="st30" d="M245.9,739.1c2.2,2.5,1.8,5-0.5,7.3c-1.4,1.4-5.1,2.6-2.3,5.3c2.4,2.3,4.3-0.4,5.9-2.1
			c2.7-2.9,2-6.6,2.2-10.1c1.2-1.8-0.6-2.4-1.5-3.3c-3.6-4.3-8.3-5.8-12.8-4.2c-1.6,0.6-3.2,1.4-2.6,3.4c0.6,2,2.3,1.8,4,1.3
			C241.4,735.7,243.9,736.8,245.9,739.1z"/>
		<path class="st31" d="M274.6,806.1c1-2.3,3.3-1.3,5-1.8c1.9-0.5,3.6-0.9,4.1-3.1c0.3-0.9,0.2-1.9,0.1-2.8c-0.2-2-1.9-3.3-3.8-3
			c-3.8,0.7-7.7,1.3-11.6,2c-0.8,0.1-1.5,0.5-2.1,1.1c-1.6,1.6-2,3.4-1.2,5.4c1.3,3,3.8,3.7,6.8,2
			C272.9,805.4,273.7,805.9,274.6,806.1z"/>
		<path class="st32" d="M268.1,811.3c0.4-0.2,0.8-0.4,1.2-0.6c-1.3-0.4-3.4,0.8-3.5-1.9c0.1-0.5,0.5-0.9,0.4-1.4
			c-0.6-2.6-1.1-5.3-2.3-7.8c-2.3-1.3-4.3-1.2-5.9,0.3c-1.4,1.3-3.4,2.2-3.5,4.5c-1.4,2.1,0.3,4.1,0.3,6.2c1.1,1.2,2.4,1.8,4,2.1
			C261.9,813,265.2,813.1,268.1,811.3z"/>
		<path class="st33" d="M284.2,798.6c0.3,0.5,0.6,0.9,0.9,1.4c0.7-0.3,1.4-0.6,2.2-0.9c5.2-2.5,9-6.3,10.5-12.1
			c-0.3-1-0.8-0.5-1.2-0.1c-3.8,2.7-7.7,5.1-12.6,5.1c-1.5,0-0.1,2.3-1.2,3.2c-0.9,0.1-0.9,0.7-0.5,1.1
			C282.9,797,283.3,798,284.2,798.6z"/>
		<path class="st30" d="M254.5,745.3c-0.1,1.4-1.3,1.7-2.2,2.3c-1.4,0.8-2.1,2.1-1.1,3.6c1,1.5,2.2,1.6,3.7,0.6
			c3.6-2.4,5.7-9,4-12.9c-0.9-2.1-2.2-3-4.3-1.4c-0.2,0.6-0.3,1.3-0.5,1.9C253.5,741.5,253.8,743.4,254.5,745.3z"/>
		<path class="st34" d="M232.5,747.2c1.7-0.5,3.4-1,5.1-1.5c-2.6-3.9-6.2-5.7-10.9-5.3c-1.7,0.2-3.1,0.9-2.9,2.8
			c0.1,1.9,1.5,2.3,3.1,2.1C229.1,745.1,231,745.7,232.5,747.2z"/>
		<path class="st35" d="M263.7,800.4c-0.1,3,1.1,5.7,2.1,8.5c2.5-0.1,4.8-0.5,6.1-2.9c-2.2,0.2-4.4,0.4-5.7-1.9
			c-1-1.7-0.9-3.5,0.5-5.1c0.5-1.5-0.1-2.4-1.7-2.6C263.8,797.5,263.9,799,263.7,800.4z"/>
		<path class="st36" d="M254.5,745.3c0.9-2,0.7-4-0.4-5.8c-1.5-1.1-2.4-2.9-4.4-3.2c0.3,1.2,1.6,1.9,1.5,3.3c0.8,1.4,0.3,3,0.5,4.4
			c0.1,0.8-0.4,1.9,0.4,2.4C253.3,747.1,253.7,745.7,254.5,745.3z"/>
		<path class="st22" d="M189.8,773.1c1,0.6,1.5,1.7,1.9,2.7c0.4,3.3,2.7,5.7,4.2,8.5c1.3,2.4,3,4.5,4.3,6.9c0.5,0.9,1,1.9,2.3,1.9
			c1.3-0.3,1.6-1.4,1.9-2.5c0.6-2,1-4,1.6-6c1-3.4,3.3-4.4,6.4-2.8c0.9,0.5,1.7,1,2.7,0.5c0.8-0.7,0.6-1.6,0.5-2.4
			c-0.3-1.7-0.7-3.3-0.7-5c0-1.8-0.9-2.4-2.6-2.4c-0.9-0.2-1.7-0.4-2.5-0.9c-1.6-1.2-3.9-1.9-3.9-4.5c-4.1-0.7-8.1-0.3-12,0.8
			C191.5,768.4,190.2,770.6,189.8,773.1z"/>
		<path class="st37" d="M210,755c3.1-0.9,6.1-1.1,8.9,0.9c1,0.7,1.7,0.4,2.5-0.4c1.8-1.7,3.6-3.4,5.4-5c-4.5-1.5-9.1-1.6-13.7-0.7
			c-0.7,0.1-1.5,0.8-2.2-0.1c-0.7-0.7-1.7-0.9-2.5-0.5c-2.4,1-4.7,2.2-6.3,4.5c0.9,2.4,3.3,2.2,5.2,2.9
			C208.5,756.3,209,755.1,210,755z"/>
		<path class="st38" d="M210,755c-1.2-0.1-1.9,0.6-2.5,1.5c1,1.1,2.4,1.5,3.7,2.1c2,0.8,3.5,2,3.1,4.4c-0.4,2.4-2.2,2.8-4.2,3.1
			c-1,0.1-2,0.3-3,0.5c2.2,1.6,4.9,3.1,7.2,1c2.1-1.9,3.7-4.7,2.5-7.8c-1-2.7-3.4-3.7-6.3-3.3c-0.5,0.1-1.3,0.4-1.4-0.3
			C209,756,209.7,755.4,210,755z"/>
		<path class="st22" d="M251.8,798.1c1.1-1.6,1-3.3,0.9-5.1c-0.3-6.1-0.7-12.3-1.1-18.4c-0.2-3.1-1-5.8-3.3-8
			c-2.1-1.9-4.7-1.9-7.4-2.2c-7.4-0.9-11.6,3.5-15.6,8.4c-0.6,0.7-1,1.4-1,2.4c0.1,0.4,0.1,0.7,0.3,1.1c0.9,0.8,1.2,1.7,1.4,2.9
			c1.5,8.7,6.6,14.2,15.2,16.6c2.1,0.6,4.2,0.7,6.2,0.3c2.1-0.4,3.1,0.2,3.6,2.1C251.3,798.2,251.6,798.2,251.8,798.1z"/>
		<path class="st38" d="M263.7,800.4c1.5-0.9,2.3-2,1.2-3.7c0.2-0.3,0.1,0.1,0.2-0.2c1.2-4.1,4.6-4.3,7.9-4.7
			c1.2-0.1,2.4-0.4,3.5-0.6c0.9-0.1,1.6-0.6,1.9-1.6c1.3-1.1,1.3-3.2,3.2-3.8c0.5-0.9-0.2-1.6-0.6-2.2c-1.8-2.6-4-5-4.9-8.2
			c-0.1-0.3-0.5-0.4-0.7-0.6c-3.1-10.1-8.7-14.8-17.4-14.5c-0.6,0-1.1,0.1-1.7,0.2c-4.4,0.8-4.5,1.1-1.7,4.4
			c2.6,3.2,2.5,7.1,2.8,10.8c0.5,6.5,0.8,13,1.1,19.5c0.1,1.6-0.3,3.3-0.5,4.9C259.9,800.2,261.9,799.6,263.7,800.4z"/>
		<path class="st38" d="M225.1,775.3c3.7-7.3,14.1-14.2,23.2-8.7c-1.7-2.4-4.2-2.4-6.7-2.4c-1.6,0-3,0.1-1.3-2.1
			c1.4-1.8-0.3-2-1.4-2.2c-6.6-0.7-12.6,1.3-17.8,5.2c-1.3,0.9-2.7,2-3.5,3.3c-1.9,3.1-4.4,4.3-7.8,3c0.4,0.8,1.1,0.9,1.9,0.9
			c2.2,0.1,3,1.2,3,3.5c0,3,0.7,6,1.4,8.9c0.5,1.9,0.2,3.2-0.9,4.6c-0.3,2.8,0.1,5.5,1,8.2c0.8,1.1,1.7,1,2.7,0.2
			c0.6-0.4,1.1-1,1.5-1.5c0.9-1.1,1.7-1,2.8-0.1c1.7,1.5,3.3,3.2,5.2,4.6c0.9-0.1,2,0,2.4-1.1c0.4-1.1-0.5-1.8-1.2-2.4
			c-5.5-5.5-6.9-12.1-5-19.4C224.8,777,224.6,776.1,225.1,775.3z"/>
		<path class="st39" d="M247.2,823.4c0.1-0.1,0.3-0.1,0.4-0.2c0,0.1,0,0.2-0.1,0.2c-0.1,0.2,0,0.2,0.2,0.1c0.9-0.7,0.8-1.5,0.3-2.3
			c-1-1.1-2.3-0.9-3.6-0.6c-1.4,0.3-2.9,0.4-4.2-0.3c-1.3-0.7-1.9-1.8-1.8-3.2c0-1.4,0.8-2.5,2.1-2.9c2.1-0.7,4.2-1,6.4-1.1
			c1,0,2.1,0.1,2.9-0.9c0.1-0.2,0.1-0.5,0-0.7c-1.2-1-2.3-2.1-2.1-3.9c0.1-0.6-0.4-1-0.8-1.4c-1.5-1.6-4.1-1-5.4-2.8
			c-2.8-1.7-4.1-1.5-5.1,0.7c-0.6,4.1-0.5,8.3-0.8,12.5c-0.3,5.1,3.4,7.9,8.5,7.1C245.2,823.4,246.2,822.8,247.2,823.4z"/>
		<path class="st40" d="M275.4,774.8c0,4.9,3.6,7.7,6.2,11c1.6,0.2,3.1,0.2,4-1.4c0.9-1.6-0.1-2.9-0.9-4.2c-0.9-1.3-1.6-2.8-2.4-4.1
			C280.4,774,278.4,771.9,275.4,774.8z"/>
		<path class="st41" d="M237,804.1c1.2-2.3,3.1-0.1,4.5-0.7c4.3-0.1,8.1-1,10.2-5.3c-0.2,0-0.3,0-0.5,0c-1.2-0.2-1.9,0.7-2.7,1.4
			c-0.9,0.9-2,1.6-3.3,1.8c-7.8,1.4-16.3-3.4-19-10.8c-1.3-3.4-1.5-7-0.8-10.7c0.2-1.2,0.5-2.4-0.3-3.5c0-0.3,0-0.6,0-1
			c-4.1,5.9-2.4,16.2,3.7,22.2c1.7,1.7,1.6,2.5-0.7,2.9c-0.3-0.1-0.7-0.2-0.9,0c-2.5,1.9-4.3,4.3-5.7,7c-0.2,0.4-0.1,0.8,0.1,1.2
			c1.5,0.9,2.2-0.3,3-1.1c1.3-1.4,2.5-2.9,3.7-4.4c0.8-1,1.8-1.2,3-0.7c1.8,0.8,3.6,1.7,5.6,2.2C237,804.5,237.1,804.4,237,804.1z"
			/>
		<path class="st42" d="M204.2,826.6c1.3-4.9,1.8-10,4.2-14.6c1.7-1.4,1.4-3.7,1.9-5.5c1.6-6.4,3.8-12.8,4.6-19.4
			c0.2-1.4,0.2-2.7,0.2-4.1c-0.1-0.4-0.3-0.7-0.7-1c-5.1-4-8.2-2.9-10,3.3c-0.7,2.4-0.8,5.1-2.2,7.3c-0.2,0.1-0.5,0.2-0.6,0.4
			c-1.4,3.8-2.8,7.5-2.7,11.7c0.6,2.3-1.1,4.2-1.2,6.3c-0.5,5.1-2,10.1-3.5,15c-1.8,5.8,1.7,8.6,6.8,6.3
			C203.7,831.3,202.8,828.3,204.2,826.6z"/>
		<path class="st43" d="M255.4,810.5c-2,0.4-3.9,0.7-5.9,1.1c0.1,0.1,0.1,0.3,0.1,0.4c-0.5,2.4-1.4,4.7-2.1,7.1
			c-0.2,0.7-0.7,1.3-0.3,2c0.5,0.6,0.9,1.3,0.3,2.1c-1.2,3.6-2.4,7.3-3.5,11c-1.1,3.7,0.2,6,3.7,6.9c-0.8-0.8-1.9-1.5-2.5-2.6
			c-0.7-1.4-0.9-3.2,0.3-4.5c1.3-1.3,3-1.5,4.6-0.5c1,0.7,1.9,1.4,2.9,2.2c1.1-0.6,1.5-1.8,1.9-2.9c1-3.1,1.8-6.3,2.7-9.4
			c0.4-1.5,1.1-2.6,2.2-3.6c0.5-1.2,0.5-2.5,0.6-3.7c0.1-1.8-0.3-3.3-2-4.2C257.5,811.5,256.5,811,255.4,810.5z"/>
		<path class="st44" d="M199.1,804.8c1.9-3.8,2.6-7.9,3.2-12.1c-3.5-5.7-7.1-11.3-10.6-17c-1.4,4.5-3.1,9-3.4,13.8
			c3.3,3.5,5.3,7.9,7.8,11.9C196.9,802.8,197.9,803.9,199.1,804.8z"/>
		<path class="st45" d="M182,810.6c0.7-0.8,1.2-2.4,2.6-0.5c2.4,3.3,5.6,2.2,8.4,1c2.5-1.1,2.5-3.6,1.7-5.9c-1.1-3.1-3-5.5-6.8-4.6
			c-2,0.5-2.8,0-2.6-2C184.3,802.6,183.2,806.6,182,810.6z"/>
		<path class="st46" d="M177.7,788.4c-0.7,0.8-1.4,1.3-2.7,1.1c-4.2-0.5-7.3,1.5-7.9,5.2c-0.7,4,1.6,5.7,5.2,6.4
			c0.8,0.1,1.3,0.6,1.5,1.4C175.1,797.7,176.4,793.1,177.7,788.4z"/>
		<path class="st47" d="M258.4,841.1c2.7-1.1,5.5-2.1,8.2-3.4c3-1.4,3.3-3.3,0.7-5.5c-2.4-2-5.4-2.4-8.3-3.2
			c-1.4-0.4-2.2-0.9-2.1-2.4c-0.4-0.2-0.5-0.1-0.7,0.3c-1,2.6-1.5,5.3-2.6,7.9c-0.3,0.7-0.1,1.6,0.4,2.3
			C255.6,838.5,257,839.8,258.4,841.1z"/>
		<path class="st48" d="M254.1,837.2c0.1-3.7,1.7-7,2.9-10.4c0.2-0.9,0.4-1.9,0.6-2.8c0.5-2.1,1-4,3.8-2.3c0.5,0.3,1.5,0.3,2.1,0.1
			c4-1.7,5,0.8,5.7,3.9c0.3,1.5,0.6,3,1.2,4.4c3,6.9,2.4,13.9,0.9,21c-0.2,0.9,0,2.2-1.6,2.2c1,1.4,2,1.3,2.1-0.3
			c0.3-5.2,2.1-10.3,1.6-15.7c-1.4-4.9-2.9-9.8-4.3-14.7c-0.3-1-0.7-1.8-1.5-2.3c-0.4-0.3-0.8-0.8-1.2-0.7c-2.4,0.5-4.7,0-7.1,0.1
			c-3,0.6-2.3,3.4-3,5.2c-1.4,3.5-2.2,7.3-3.3,10.9C253.3,836.4,253.4,837,254.1,837.2z"/>
		<path class="st49" d="M278.4,789.7c-3.1,0.6-6.3,1.3-9.4,1.7c-3.3,0.4-4.7,2.1-4.1,5.4c0.6,0.7,1.2,1.5,1.8,2.2
			c4.7-0.9,9.4-2.1,14.1-2.5c2.9-0.2,2.7,2.7,2.9,4.8c0.8-0.8,0.2-1.9,0.5-2.8c-0.3-1.2-2.4-1.7-1.5-3.5
			C283.4,791.6,282,789.8,278.4,789.7z"/>
		<path class="st50" d="M292.9,773.7c-0.3-2.6-1.8-4.2-4.6-4.1c-2.8,0.1-4.3,1.8-4.2,4.5c0.1,2.8,1.8,4.3,4.5,4.2
			C291.4,778.2,292.8,776.5,292.9,773.7z"/>
		<path class="st51" d="M259.4,819.7c2.6,2.6,5.5,0.7,8.3,0.5c-0.6-3-1.1-6,0.4-8.9c-3.2,0.2-6.4,0.4-9.5,0.6
			C260.2,814.4,259,817.1,259.4,819.7z"/>
		<g id="wings">
			<path class="st52" d="M230.7,748.2c-5.5-0.9-10.5-3.6-15.6-5.6c-17.5-6.6-34.8-13.6-52.3-20.1c-7.4-2.7-14.7-1.8-21.1,2.8
				c-2.5,1.8-4.7,2.1-7.6,1.2c-12.5-3.9-26.5,3.3-29.8,15.2c-3.9,14.1,3.3,27.2,17.2,30.5c12,2.8,24.1,5.2,36.1,7.8
				c1.8,0.4,3.6,0.9,5.4,1.3c1.3,0.2,1.8,0.9,1.7,2.2c5.2,0.2,10.4,1.5,15.3-1.2c4.7-1.5,8-4.8,10.5-8.9c1.5-4,4.3-5.7,8.6-5.4
				c2.2,0.2,4.4-0.7,6.7-0.3c0.7,0.1,1.3-0.1,1.8-0.5c0.6-0.4,1.3-0.4,2.1-0.4c3,0.3,5.3-1.2,5.7-3.6c0.4-2.5-1.3-5.1-4-5.8
				c-1.1-0.3-2.1-0.7-3-1.3c-1.8-1.5-4.4-1.4-6.1-3.1c-6.5-2.3-13.1-4.5-19.2-7.6c-0.4-0.2-0.9-0.4-1.3-0.5c-2.5-0.7-4.7-2-7.1-2.9
				c-4.4-1.7-8.5-4.1-13-5.6c-2.3-0.6-4.5-1.7-6.7-2.7c-1.4-0.7-3-1.1-4.5-1.7c-0.4-0.2-1-0.3-1-0.9c0.1-0.5,0.7-0.6,1.1-0.7
				c2.1-0.3,4.2-0.8,6.4-0.5c3.5,0.3,6.5,1.8,9.6,3.2c2.9,1.1,5.9,2.2,8.8,3.4c3,0.9,5.8,2.2,8.7,3.4c6,2.2,11.8,4.6,17.8,6.8
				c2.9,1.4,6.3,1.7,8.9,3.8c0.9,0.5,1.8,0.6,2.8,0.3c4.4-1.1,8.8-0.3,13.2,0.4C229.8,751,230.7,750.3,230.7,748.2z"/>
			<path class="st53" d="M182.4,754.5c-2.7-1.1-5.4-2.2-8.1-3.4c-1,1.5-2.6,1.5-4.1,1.3c-4.6-0.8-9.2-1.4-13.8-2.3
				c-1.5-0.3-2.6-1-2.6-2.6c0-1.7,1.1-2.4,2.7-2.4c0.6,0,1.1-0.2,1.4-0.8c-2.7-1.1-5.5-2.3-8.2-3.4c-2.4,1.3-2.9,3.5-3,5.9
				c-0.2,4.4-0.7,4.8-4.9,3.2c-2.4-0.9-5.1-1.4-7-3.5c-2.5-2.7-1.7-6.7,1.6-8.3c1-0.5,2.3-0.5,2.7-1.7c-2.9-1.3-5.6-2.9-8.8-3.3
				c-0.6,1.1-1.5,1.9-2,3c-1,2.6-2.8,3.5-5.4,3.2c-3.5-0.4-6.8,0.3-10,1.6c-2,3.4-3,7-1.9,10.9c3-4.7,7.5-5.9,12.7-5.6
				c0.6,0,1.1,0,1.7,0.2c1.4,0.5,1.5,1.3,0.4,2.2c-1.3,1.1-2.8,2-3.8,3.3c-2.7,3.5-3.3,7.4-2.3,11.6c2.7,1.6,5.8,1.9,8.8,2.4
				c0.6-1.1-0.4-1.6-0.9-2.2c-1.7-2.4-1.7-4.8-0.2-6.9c1.6-2.3,3.7-2.9,6.6-2.1c0.9,0.2,1.7,0.6,2.5,0.8c3.3,0.8,6.1,2,5.7,6.2
				c0,0.2,0.1,0.5,0.2,0.7c2,2.5,1.4,4.6-1,6.5c2.9,0.6,5.8,1.2,8.7,1.9c0.5-1.7,1.7-2.2,3.4-2.4c6.6-0.6,13.2-0.6,19.7-1.3
				c3.5-0.4,6.9,0.2,10.2,1.2c1.6-3.2,3.6-5.9,6.9-7.6c-1.9-1.7-4.1-0.4-6.1-0.4c-1.1,0-2.2,0.3-3.3,0c-1.2-0.3-1.9-1.1-2-2.4
				c-0.1-1.3,0.5-2.1,1.8-2.5C181.4,755.4,182.1,755.3,182.4,754.5z"/>
			<path class="st54" d="M141.3,769.1c3.4-0.3,4.6-2.7,2.7-5.4c-0.7-1-1.3-2.2-1.1-3.4c0.3-3.1-1.3-4.4-4.1-4.9
				c-1.2-0.2-2.4-0.9-3.6-1.3c-4.4-1.5-7.2-0.6-9.2,2.7c-1.9,3.2-1.1,6.3,2.3,9.3C132.6,767.1,137,768.1,141.3,769.1z"/>
			<path class="st55" d="M183.5,768.4c0.1-1.3-0.6-1.7-1.9-1.9c-10.2-1.1-20.3,0.8-30.4,1c-1.1,0-1.8,0.7-2.3,1.6
				c-0.6,1.1,0.7,1.2,1.1,1.8c6.7,1.5,13.3,3.1,20,4.4C175.9,776.4,180.8,773.8,183.5,768.4z"/>
			<path class="st56" d="M139,736.5c-3.7,0.2-6.3,2-6.8,5.8c-0.5,3.5,1.6,5.9,5.6,7.3c2.3,0.8,4.4,2,6.8,2.3c1.6,0.2,3.2,0,3-2
				c-0.3-3.3,0.7-6.2,2-9C146.1,739.5,142.6,738,139,736.5z"/>
			<path class="st54" d="M119.5,763.8c1.3-0.4,0.7-1.4,0.6-2.2c-0.4-5.3,1.9-9.1,6.3-11.8c0.8-0.5,1.7-0.8,1.7-1.8
				c-0.1-1.2-1-1.8-2-2.2c-3.4-1.6-12.1,0.4-14.7,3.3c-0.8,0.9-0.5,2-0.6,3C111.8,757.4,114.7,761.2,119.5,763.8z"/>
			<path class="st55" d="M202.4,745.8c-5.9-2.3-11.9-4.6-17.8-6.9c-3.3-0.5-4.8,0.3-5.3,2.8c-0.4,2,0.8,3.1,2.3,4.1
				c0.3,0.1,0.7,0.3,1,0.4c5.7,1.9,11.5,2.9,17.4,3.1c1.2,0.1,2.2-0.3,2.9-1.4C203.4,747.2,203.3,746.4,202.4,745.8z"/>
			<path class="st55" d="M157.8,744.3c-2.4-0.6-4.7-0.5-5.2,2.4c-0.6,3.1,1.5,4.2,4.2,4.6c5,0.7,10,1.5,15,2.3
				c1.9,0.3,3-0.3,2.5-2.5C168.8,748.9,163.3,746.6,157.8,744.3z"/>
			<path class="st57" d="M161.2,737.5c4.3,1.8,8.7,3.6,13,5.5c3.1-0.3,2.5-3.3,3.3-5.1c0.6-1.3-0.9-1.7-1.8-2.3
				c-2.9-1.1-5.8-2.2-8.7-3.4c-2.4-0.7-4.8-0.8-6.5,1.5C159.6,735.1,159.3,736.5,161.2,737.5z"/>
			<path class="st58" d="M112.9,741.1c0.3,0.8,0.9,0.9,1.5,0.6c3.5-1.6,7.2-1.1,10.9-1.2c2.3,0,6-5.3,5-7.3
				C123.4,731.7,116.6,734.8,112.9,741.1z"/>
			<path class="st59" d="M202.3,753.6c3.3-0.5,5.2-4,8.7-3.9c-2.5-2.3-5.8-2.6-8.7-3.9c0.6,2.2-0.6,2.7-2.5,2.5
				c-5.8-0.7-11.6-1.4-17.4-2.1c5.7,2.5,11.5,5,17.3,7.4C200.5,754,201.5,753.7,202.3,753.6z"/>
			<path class="st60" d="M182.4,754.5c-2.6-0.2-4.8,0.1-4.7,3.5c0.1,3.3,2.4,3.9,5,3.7c2.6-0.2,5.1-0.6,7.6-0.8c0.1,0,0.2,0,0.2,0
				c1-0.4,2.9-0.9,2.9-1.2c-0.1-1.3-1.6-1.2-2.6-1.6C188.1,756.7,185.2,755.7,182.4,754.5z"/>
			<path class="st61" d="M156.9,728.9c-3.1-0.2-6.1,0-9,1.3c-1.3,0.6-1.5,1.3,0,1.9c2.1,0.9,4.3,1.8,6.5,2.6
				c1.9,0.2,4.8-2.6,4.8-4.4C159.1,728.6,157.6,729.4,156.9,728.9z"/>
			<path class="st62" d="M175.8,735.6c2.2,3-0.6,5-1.5,7.4c2.4,1,4.9,1.9,7.3,2.9c-2.4-4.1-1.4-6.5,3-6.9
				C181.6,737.8,178.7,736.7,175.8,735.6z"/>
			<path class="st63" d="M156.9,728.9c0.4,0.6,2,0.6,1.5,1.1c-1.4,1.5-1.5,4.2-4,4.7c2.3,0.9,4.6,1.8,6.8,2.8
				c-1.1-2.2,0.4-4.5,3.5-5.1c0.8-0.2,1.6-0.1,2.4-0.1C163.7,731,160.6,729,156.9,728.9z"/>
			<path class="st64" d="M150.5,762.7c7.5-0.5,14-1,20.5-1.4c0.8-0.1,1.5-0.2,1.6-1.1c0.1-0.9-0.6-1.3-1.3-1.4
				c-6.7-1.1-13.5-2.3-20.3-3.1c-2-0.2-3.5,1.3-3.3,3.6C147.8,761.6,149.3,762.6,150.5,762.7z"/>
			<animateTransform attributeName="transform"
                    type="translate"
                    from="0 0" to="0 2"
                    begin="play.click" dur="0.5s"
                    repeatCount="indefinite"	
            />	
		</g>
		<path class="st65" d="M214.5,782.1c0,0.4,0,0.7,0.1,1.1c0.3,1.2,0.1,2.4,0,3.6c-0.1,1-0.3,2.3,1.3,2.6c2-1.3,2-2.6,1.1-4.8
			c-1.2-2.7-2.2-5.7-2-8.8c0.1-2.5-0.9-3.6-3.4-3.3C213.6,773.4,215.3,778.8,214.5,782.1z"/>
		<path class="st66" d="M225.1,776.3c-4.8,14,4.1,26.4,18.8,26.2c3.5,0,5.4-2,7.3-4.4c1.4-3.5,0.5-4-3.1-3.2
			c-9.8,2.3-20-6.1-21.2-16.8C226.9,777.2,227.7,774.7,225.1,776.3z"/>
		<path class="st67" d="M236.7,776.1c0.3,3,1.8,5,4.9,5c3.1,0,4.9-1.7,4.9-4.8c0.1-3.1-1.7-4.9-4.8-4.9
			C238.6,771.3,237.1,773.2,236.7,776.1z"/>
		<path class="st68" d="M261.9,786c0.1,1.6,0.6,3,2.5,3.3c1.8,0.2,3.2-0.6,3.5-2.5c0.5-2.7,0.9-5.4,1.1-8.1c0.1-1.8-0.7-3.4-2.7-3.7
			c-2-0.3-2.9,1.2-3.2,2.9C262.6,780.5,262.3,783.2,261.9,786z"/>
		<path class="st69" d="M215.9,789.4c-1.5-1.8-0.4-4.2-1.3-6.2c-0.9,8.6-3.6,16.8-6,25.1c-0.4,1.4,0.1,2.5-0.1,3.7
			c0.6,0.3,1.3,0.6,1.8,1c3.3,2.9,6.3,2.4,8.6-1.5c1.5-2.6,0.7-5.3,0.1-8c-0.4-1.9,0-4.1-1.9-5.5
			C216.7,795.1,216.3,792.3,215.9,789.4z"/>
		<path class="st70" d="M217.1,798c0.6,4.5,1.2,9,1.8,13.5c0.5-0.4,1-0.8,1.4-1.2c0.4-0.6,1.4-0.7,1.3-1.7c1.7-3.1,4.2-5.5,6.4-8.2
			c-0.9-3.3-4-4.6-6.4-6.4c-1-0.8-1.6,1.4-2.5,2.1C218.4,796.6,217.7,797.4,217.1,798z"/>
		<path class="st71" d="M247.3,821.2c2.5-2.2,2-5.7,3.5-8.4c0.3-0.6-0.7-0.6-1.2-0.7c-2.7,0.2-5.4,0.3-8.1,0.7
			c-3,0.4-4.6,2.2-4.1,5.3c0.5,3.1,2.8,4.1,5.7,4C244.5,821.9,245.9,821.5,247.3,821.2z"/>
		<animateTransform attributeName="transform"
                    type="translate"
                    from="0 0" to="1200 0"
                    begin="play.click+9s" dur="15s"
                    repeatCount="1"
                    fill="freeze"
        />	
	</g>
</g>
<g id="sPider">
	<g>
		<g>
		<path id="LongLeg2" class="st72" d="M1297.5,830.8c4.3,6,9.6,11.2,14.6,16.6c1.4,1.5,3.3,1.2,5.1,1.4c5.3,0.7,9.3,3.4,11.3,8.3
			c2.4,5.6-1.6,11-7.7,10.2c-2.5-0.3-4.6-0.4-7.1,0.5c-4,1.5-7.6,0-10.8-2.9c-4-3.6-7.2-8.1-12.1-10.6c-5.5,0.1-7.1-4.8-10.2-7.8
			c-1.5-2.5-3.5-4.7-6.4-5.7c-3.4-2.1-6.1-5-8.5-8.1c-1.9-3.1-4.5-5.5-7.7-7.3c-14.6-10.5-21.7-26.4-29.8-41.5
			c-3.2-5.9-6.5-11.8-9.7-17.7c-1.4-2.6-3.3-4-6.3-3.6c-3.1-0.5-4.3-2.7-5.1-5.4c-1.3-4.9-1.8-10-2.5-15c-0.5-3.4,1.6-5.9,3.2-8.6
			c5.8-6.7,10.7-8.2,16.3-4.9c5,1.4,7.4,5.3,9.8,9.6c9.7,18.1,19.6,36.1,29.5,54.2c2.4,4.4,6.1,7.7,9.4,11.4
			C1280.9,813,1289.2,821.9,1297.5,830.8z"/>
		<animateTransform attributeName="transform"
                    type="translate"
                    from="0 0" to="-10 0"
                    begin="play.click+3.5s" dur="0.5s"
                    repeatCount="indefinite"
                    fill="freeze"
                    	
    		/>
    	</g>		
		<path class="st73" d="M973.8,782.2c2.8,0.3,1.8-1.9,1.8-3c-0.7-13.6-1.2-27.3-2.3-40.9c-0.6-6.9,0.1-13.9-1.7-20.6
			c2.9-11.8,14-16.9,24.1-10.8c1.9,1.2,3.7,0.9,5.6,0.9c1,6.3,2.9,12.4,6,18.2c1.3-0.3,1.2-3.9,3.7-1.9c1.5,2.6,0.7,5.1-0.3,7.7
			c-1,2.9-2.4,5.7-4,8.3c-3.2,5.3-4.4,11.1-3.1,17.3c0.4,1.7,0.2,3.6,0.1,5.4c-0.2,0.6,0.3,0-0.1,0.5c-3.2,4.3-3.6,8.9-1.2,13.7
			c-0.9,3.9-4.7,7.5-1.5,12c0.5,4.7,2.7,9.1,2.8,13.9c0.1,4.2-1.1,5-5.1,4c-11.1-2.8-14.9-0.7-19.5,10.4c-0.6,1.4-1,4-3.6,1.9
			c-0.7-1-1-2.1-1-3.3c0-10.5-0.9-21-1.8-31.5C972.9,783.6,973.2,782.8,973.8,782.2z"/>
		<g id="LongLeg1">
			<path class="st74" d="M915.3,802c5.8-8.9,8.8-19.1,12.6-28.9c6.4-16.4,13-32.6,18.7-49.3c3.6-10.7,16.6-13.7,25-6.1
				c2.8,1.7,3,4.6,3.1,7.4c0.4,14.7,2,29.3,2.1,43.9c0,2.8,1.1,5.5,0.9,8.3c-0.2,2.3,0,4.7-2.5,6c-3.4,0.2-4.2-2.5-5.4-4.8
				c-0.9-1.6-0.8-4.1-3.6-4c-2.2-1-1.8-3.3-2.8-5.6c-3.7,9.4-7.2,18.3-10.4,27.3c-1.5,4.2-2.9,8.4-4.7,12.4
				c-2.2,4.8-4.7,9.5-10.3,11.2c-1,0.1-2-0.1-3-0.1C922.2,820.2,916.3,814.8,915.3,802z"/>
			<path class="st75" d="M915.3,802c1.7,0.9,1.9,2.5,2.2,4.2c1.1,7.5,8.8,13.3,15.9,11.8c1.7-0.4,3.2,0.1,4.8,0.8
				c0.3,0.4,0.5,1,0.3,1.4c-3,6.4-6.9,12-13.4,15.4c-6.9,7.9-13.9,15.8-20.7,23.8c-4.1,4.7-8.2,9.4-11.9,14.5
				c-4.2,5.8-11,6.9-16.7,9.9c-3.9,2-8.2-0.7-8.9-5.1c-0.5-3.4-2.2-4.8-5.3-5.4c-5.7-1.1-7.9-7.1-4.5-11.7c3.8-4.9,9.3-6.9,15.3-5
				c2.3,0.7,4.2,0.9,5.7-1.2c10.4-14.6,21-29.1,30.2-44.4C910.7,808,913,805,915.3,802z"/>
			<animateTransform attributeName="transform"
                    type="translate"
                    from="0 0" to="10 0"
                    begin="play.click+3s" dur="1.5s"
                    repeatCount="indefinite"
                    	
    		/>	
		</g>
		<path class="st76" d="M1264,866.4c0.3,0.3,0.7,0.6,1,1c1.3,2.1,3.3,3.7,3.8,6.3c0.9,4.8-2.8,8.4-8.8,8.6c-2.9-0.4-4.3-2.7-5.7-4.9
			c-2.7-4.1-6.6-5.7-11.4-5c-2.4,0.3-4.5,1.4-5.2,3.8c-0.7,2.3,0.4,4.1,1.9,5.8c0.6,0.6,1.2,1.1,1.9,1.6c1.2,0.9,2.4,1.9,2.2,3.6
			c-0.3,2.2-2.4,1.1-3.6,1.7c-1.2,0.6-2.5,0.8-3.8,0.4c-2.7-1.1-4.7-3-6.1-5.5c-9.8-17.7-20.2-35-30.1-52.7
			c-0.7-1.3-1.6-2.5-2.7-3.5c-1.8-4.4-5.8-7.8-5.4-13.1c1.7-2.5,4-1.3,6.2-0.9c9.3,1.5,14.6-2.2,16.3-11.6c0.3-1.6,0.4-3.3,2.1-4.2
			c7.9,16.7,15.7,33.4,23.6,50.1c2.4,5.1,4.8,10.1,7,15.3c0.9,2.1,2.2,2.2,3.9,1.2C1255.6,864.1,1260.3,862.1,1264,866.4z"/>
		<path class="st77" d="M1240.2,889.2c-1.3-0.2-2.8,0.3-3.9-1.1c0.7,0,1.3,0.1,2,0c1.4-0.2,3.5,0.7,4-0.8c0.7-2-1.7-1.8-2.8-2.6
			c-3.1-2.2-5-5.1-4.1-8.8c1-3.8,4.1-5.2,7.8-5.6c6.3-0.6,10.8,1.9,13.6,7.6c0.8,1.7,1.9,3.1,3.2,4.3c-2.3,0.5-1.7,2.3-2.1,3.9
			c-1.2,5.8-7.1,8.4-12,5.1C1244.2,890,1242.5,888.9,1240.2,889.2z"/>
		<path class="st78" d="M947,860.4c0.4-0.5,0.7-1.3,1.2-1.5c8.5-2.9,10-10,11.3-17.6c1.1-6.2,2.5-12.4,4.2-18.5
			c4.6-16,3-32.4,2.8-48.6c0.4-2.3,1.1-3.1,2.8-0.7c1.8,2.7,2.1,6.2,4.4,8.7c3.3,7.8,1.7,16.2,2.8,24.3c0.6,4.4,0.2,8.9,0.2,13.3
			c-2.7,16.7-5.4,33.4-8,50.2c-0.7,4.6-4.5,2.8-7,3.6c-1.7-0.4-3.2-0.3-4.6,0.8c-3.1,2.4-6.3,2.6-9.5,0.1c-3.3-2.5-3-6-2.3-9.5
			C945.7,863.5,946.5,862,947,860.4z"/>
		<path class="st79" d="M1216.6,797.9c-0.3,4.2,0.4,8.6-2.8,12.2c-4.9,5.8-10.4,7.4-17.6,5c-1.2-0.4-2.3-1.5-3.6-0.3
			c-5-0.8-5.9-5.1-7.2-8.7c-1-2.6-1.5-5.4-1.4-8.1c0.1-2.8-1.1-4.6-3.1-6.1c-1.2-2.3-0.9-4.8-0.6-7.2c2.3-16.6,3.8-33.3,5.5-50
			c0.4-3.6,0.9-7.2,1-10.8c0.1-5.1-0.5-9.8-4-13.9c-1.2-1.4-2.4-3.4,0-5.1c11-2.6,18.6,2.4,20.5,13.6c0.8,4.7,1.7,9.3,2.1,14
			c0.3,3.2,1.9,2.8,3.9,1.9c-2.9,3.2-3,6.8-2.2,11c0.8,4.2,1.4,8.4,2.2,12.6c0.5,2.4,1.7,3.4,4,3.4c-1.9,2.2-2.7,4.4-2,7.5
			C1213.3,778.5,1214.9,788.2,1216.6,797.9z"/>
		<path id="backleg" class="st80" d="M1179.7,821.8c-0.6-10,1-19.9,2.1-29.8c3.4-0.1,3.9,2.1,4,4.9c0.2,6.7,2,12.9,6.8,17.9
			c1.6,4.1,4.8,7.5,6,11.8c0.6,9.1,1.3,18.1,1.8,27.2c0.1,2.9,1.1,4.3,4.1,5.1c6.3,1.7,9.1,5.5,9,10.8c0,4-1.4,6.7-5.9,6.7
			c-3,4.1-6,0.1-9-0.1c-0.6,0.2-1.2,0.5-1.9,0.6c-7.1,1.1-7.7,0.8-8.9-6.3C1185.1,854.4,1182.4,838.1,1179.7,821.8z"/>
		<g id="leg1">
			<path class="st81" d="M1163.9,872.4c-3.6-8.6-5-17.9-7.9-26.8c-1.6-5.7-2.8-11.5-4.8-17c-2.1-5.9-2.8-11.7-1.5-17.8
				c0.6-2.5,0.9-5.2-0.8-7.6c4.5,1.2,8.7-0.9,13-1.4c9.4-1.1,17.3,5.4,18.2,14.9c0.2,1.8,0.8,3.5,1.4,5.2c2.9,13.7,4.6,27.6,7,41.3
				c0.3,1.6,0.5,3.2,0.8,4.9c1.4,7.2,1.4,7.2,8.4,7.3c3.6,1.5,7,3.3,9.6,6.2c1.3,1.7,2.2,3.6,1.1,5.7c-0.4,7.3-2.5,9-10.9,8.9
				c-2-1-2.4-3-3.2-4.7c-2.5-5.6-6.2-7.7-12.1-7.1c-5.1,0.5-6.8,3.5-4.5,8.2c0.9,1.8,3,3.2,2,5.7c-5.5,0.4-9.1-2.1-10.6-7.4
				C1167.4,884.6,1165.7,878.5,1163.9,872.4z"/>
			<path class="st82" d="M1179.8,898.1c-1.9-2.9-5.1-5-5-9.2c0.1-3,1.2-5.3,4-6c7.8-2,14.6-0.5,17.7,8.4c0.5,1.5,0.8,3.2,1.2,4.8
				c-0.4,0.9-0.7,1.8-1.1,2.6c-1.2,2.9-2.7,5.7-6.3,6.2c-3.5,0.5-5.9-1.2-7.7-4.1C1181.9,899.7,1180.7,899,1179.8,898.1z"/>
			<path class="st83" d="M1147.1,802.1c2.5,0,3.8-0.7,4.1-3.6c1.1-12.9,2.5-25.8,3.9-38.7c1.4-12.9,2.8-25.8,4.3-38.7
				c0.2-1.5,0.9-2.9-0.3-4.2c-1-2.1,1.4-2.6,1.8-4.1c2.8-5.5,7.3-8.2,13.4-8c2.8,0.1,5.6,0,8.3,0.1c-0.4,1-0.6,2,0.3,2.7
				c7.9,6.4,6,15.1,5.2,23.3c-1.2,14.4-3.1,28.7-4.5,43c-0.6,6-2.4,11.9-2,18.1c2.3,2.3,1.4,5.1,1.2,7.9c-0.4,5.4-1.4,10.7-1.2,16.1
				c0.1,2.1,0,4.3-2.1,5.7c-1-1.1-1.1-2.4-0.9-3.7c1.5-10.9-12.5-18.6-22.9-12.8c-3.3,1.8-4.8,2.6-5.6-1.7c0-0.2-0.9-0.3-1.3-0.5
				C1148.4,802.8,1147.7,802.4,1147.1,802.1z"/>
				<animateTransform attributeName="transform"
                    type="translate"
                    from="0 0" to="0 3"
                    begin="play.click+3.5s" dur="0.7s"
                    repeatCount="indefinite"
    		/>
		</g>
		<g id="body">
			<path class="st84" d="M1015.3,696.9c-1.6,9-3.3,18-4.9,27c-0.8,1.9-1.5,3.9-2.7,6.8c-2.9-5.3-5.1-10.1-6.5-15.3
				c-0.7-2.5-2.7-5.1,0.2-7.6C1004.4,702.1,1007.9,697,1015.3,696.9z"/>
			<path class="st85" d="M1172.8,640.5c7.1,1.4,13.9,3.7,20.5,6.7c2.4,1.1,4.6,2.5,6.8,3.9c3.4,2.2,6.6,4.9,11.2,2.5
				c2-1,4.4-0.3,6,2c1.4,2.1,0.8,3.8-0.4,5.4c-1.7,2.1-1.2,3.8,0.2,5.7c9.4,13.1,13.6,27.7,12.1,43.8c-0.6,5.9-0.7,12.2-5.1,17.1
				c-3.3-1-2.6-3.8-2.7-6.1c-0.7-9.6-3.7-18.3-9.6-26.1c-8.6-11.3-20.1-16.7-34-17.3c-11.5-0.5-23-1.6-34.6-0.8
				c-0.8,0.1-1.6-0.2-2.4-0.5c-0.4-0.2-0.8-0.5-1.2-0.9c-1.6-2.6-2.8-6.1-6.8-2.7c-0.3,0.4-0.7,0.7-0.9,1.2
				c-1.3,2.2-2.9,4.3-5.8,3.6c-3.2-0.7-3.8-3.6-3.6-6.3c0.4-7.4-1.7-13.6-7.5-18.4c-3.3-2.8-7.2-3.9-11.3-4.4
				c-1.6-0.2-3.1,0.2-3.5,1.9c-0.6,2,0.7,3,2.5,3.5c1.9,0.5,3.8,1.1,5.6,1.9c6.1,3,9.1,8.9,7.8,15.5c-1.1,5.5-5.1,7.1-10.3,4.2
				c-0.9-1.5-0.6-3.2-0.7-4.8c-0.1-1.6-0.7-3-2.5-3.2c-1.5-0.2-2.5,0.7-3,2.1c-2.5,7-7.9,8.4-14.6,8.2c-10.4-0.3-20.8,0.1-31.2-0.2
				c-5.3-0.1-6.8-1.5-7-5.9c-0.3-9.2,7.3-13,12.5-18.4c1.5-1.5,3.4-2.5,4.6-4.4c2.2-3.1,5.1-4.9,9-5c3.9-0.2,5-2,4.2-5.9
				c-0.8-4-1.7-9.2,3.6-10.4c5.2-1.2,5.1,4.3,6.4,7.7c0.1,0.3,0.4,0.5,0.6,0.8c2.1,1.3,4.4,1.3,6.7,1.2c2.2-0.1,4.2,0.4,6.1,1.6
				c13.7,0.1,27.4,0.7,41.2,0.3c4.9-0.1,7.6-0.9,8.2-6.3c0.5-4.6,3.5-6.1,6.7-4.4c1.8,0.9,2.5,2.4,2.6,4.4c0.1,1.8-0.4,3.7,1,5.2
				c2.7,0.6,5.4-0.4,8.1,0C1169.9,638.7,1171.5,639.1,1172.8,640.5z"/>
			<path class="st86" d="M1046.8,672.3c1,2.9,3.1,4,6.1,4c12.3,0,24.7,0,37,0c4.1,0,6.6-2.1,7.4-5.9c0.8-3.6,2.3-6,6.2-5.2
				c4.1,0.8,4,4.2,3.6,7.5c-0.1,1.1-0.4,2.3-0.5,3.4c6.3,1.4,6.4,1.5,2.8,7.5c-1.4,0.8-2.9,0.5-4.3-0.1
				c-12.4-4.8-25.1,3.3-28.9,13.2c-4.4,11.7,0.4,23.4,12.4,29.8c0.4,0.2,0.9,0.5,1.3,0.7c4,2.8,9.3,1.6,13.4,4
				c1,0.6,2.1,0.8,2.4,2.2c-0.8,1.8-2.6,2.2-4.2,2c-9.9-0.7-16.1,5.5-22.5,11.7c-2,2.6-5.5,3.6-7.3,6.4c-1,1.1-2,2.2-3.2,3.1
				c-3,2.4-4.2,5.3-2.8,9.1c0,0.5,0.1,1.1-0.1,1.4c-4.1,5.5-4.2,11.5-2.3,17.8c-0.5,3.5-0.9,7.1-4.4,9.1c-2,0.7-3.8,0.5-5.3-1.1
				c-1.2-3.8-0.2-7.8-1.3-11.6c0.1-1.1,0-2.4,0.7-3.4c2-2.9,1.2-5.6-0.5-8.2c-1.4-2.1-2.3-4.4-2.1-7c1.5-5-3-7.4-4.9-11
				c-0.8-2.5-2-4.8-2.9-7.3c-2.5-6.3-6.8-10.7-13.4-12.7c-2.4-0.7-4.6-1.6-5.5-4.3c-0.5-1.9-0.4-3.7,0.8-5.3c2.5-1.5,4,0.6,5.6,1.7
				c10.9,7.1,24,4.8,32-5.8c6.5-8.6,4.5-22.8-4.2-30.5c-3.9-3.4-8.4-5-13.6-4.8c-2.3,0.1-4.6,0.6-6.8-0.7c-1.7-1.8,1.4-4-0.5-5.8
				c-1-1.8-1-3.7-1-5.7c0-3,1.3-5.1,4.5-5.3c3.1-0.2,4.9,1.2,5.4,4.4C1046.1,670.5,1046.5,671.3,1046.8,672.3z"/>
			<path class="st87" d="M1224.2,728.8c-6.1-1.1-10.9,1.2-14.8,5.7c-2.8,2.9-4.6,1.7-5.6-1.6c-1.1-3.6-1.5-7.4-2-11.1
				c-1.7-12.3-6.4-16.2-18.7-15.4c-2,0.1-3.9,0.7-5.9,0.4c-6.4-0.7-11.2,1.8-15,6.8c-5.1,3.3-5.9,3.1-7.8-2.5
				c-2.1-6.3-6.5-10.1-12.7-11.9c-3.2-1.7-4.1-4.8-5.1-7.9c-1.7-6,1.4-11,3.7-16.1c1.2,0.7,2.5,0.4,3.8,0.4
				c13.8-0.6,27.7-0.6,41.3,1.7c21.9,3.7,37.8,23.1,38,45.3c0,1.8-0.5,3.7,0.8,5.2C1224.2,728.1,1224.2,728.4,1224.2,728.8z"/>
			<path class="st88" d="M1037.1,676.1c0.5,0.1,1,0.2,1.4,0.4c1.3,0.5,3.2,0.8,3.1,2.5c-0.1,1.7-2.1,0.8-3.2,1.3
				c-0.4,0.2-0.8,0.5-1.2,0.8c-0.8,2.1-2.9,2.6-4.5,3.5c-11.5,6.5-15.5,19.5-9.6,31.4c0.9,1.9,2.4,3.6,2,5.9c0,1.9,0.1,3.9,0.1,5.8
				c-3.7,4.9-9.5,4.9-14.6,6.5c-1.2,0.4-1.9-1-1.5-2.4c0.5-2.6,1.5-5.2,1.2-8c-1.2-1.6-1.1-3.4-0.9-5.2c0.9-5.8,2.1-11.5,3.1-17.3
				c0.3-1.9,1.5-3.2,2.7-4.5c0.5-3.4-1.7-5.5-3.5-7.9c-2.9-3.8-4.6-8-4.4-12.8c0.1-2.9,1.4-4.7,4.4-4.9c3.1-0.2,5.1,1,5.5,4.3
				c0,0.3,0,0.7,0.1,1c0.4,2.7,1,6.2,4,5.9c4-0.4,2.5-4,2.1-6.8c-2.2-12.9,2.3-21.8,13-26.9c2.7-1.3,5.4-1.3,8.2-1.3
				c2.4,0,4.2,0.6,4.4,3.5c0.2,2.5-0.3,4.6-3.1,5.4c-1.6,0.4-3.2,0.8-4.8,1.3c-6.1,1.9-10,9.8-7.7,15.7
				C1034.1,674.9,1035.3,676,1037.1,676.1z"/>
			<path class="st89" d="M1172.8,640.5c-4.3-0.6-9,1.8-12.8-2c1.3-0.7,2.2-1.8,3-3.1c1.5-2.3,3.4-4.4,6.4-3.3c2.7,1,3.7,3.5,3.4,6.4
				C1172.8,639.2,1172.8,639.8,1172.8,640.5z"/>
			<path class="st90" d="M1072.9,644.4c-2.6,2.3-5.5,4.1-9,5c-2.7-4.2-2.6-7.7,0.3-9.3C1067.4,638.3,1070.6,639.9,1072.9,644.4z"/>
			<path class="st91" d="M1100.5,639.4c-2.6,0.1-5.3,0-7.9,0.5c-3,0.6-4.4-0.5-4.9-3.2c0.1-0.1,0.3-0.2,0.4-0.3
				C1095.8,629.6,1096.8,629.9,1100.5,639.4z"/>
			<path class="st92" d="M1140.2,675.1c0.1,2.9-0.6,5.8-1.8,8.4c-1.1,2.5-1.3,4.9-0.4,7.5c-1,0.5-1.9,0.1-2.8-0.4
				c-2.8-2.4-2.8-5.3-1.4-8.4c0.8-1.7,1.7-3.4,1.4-6.5c-2.2,3.9-2.6,9.3-8.4,6.7c-2.2-1.1-4-1-5.6,1.2c-2.5,3.4-5.6,4.3-9.5,2.5
				c-1.2-0.6-2.7-1.2-2.5-3c-1.4-2.2-0.1-3.9,1.4-5.4c-1.4-1.1-3.3-0.2-4.2-1.8c2.5-0.1,5.7,1.1,7.1-2c1.7-3.8,1.6-7.8-0.7-11.3
				c-2.3-3.7-5.8-5.8-10.2-6.2c-3.8-0.4-6-2.2-5.2-6.1c0.7-3.8,3.7-4,7-3.5c12.6,1.8,20.1,10.5,19.9,23.3c0,0.8-0.1,1.6-0.1,2.5
				c0,1.6-0.3,3.5,1.8,4.1c1.9,0.5,3-0.9,3.9-2.3c0.7-1.1,1.5-2.2,2.2-3.2C1136.4,669.6,1138.8,671.3,1140.2,675.1L1140.2,675.1z"/>
			<path class="st79" d="M1136.2,690c0.6,0.4,1.3,0.7,1.9,1.1c1.8,2.1,1.6,5.2,3.9,7c1,0.5,1.9,1,1,2.3c-0.1,0.1-0.3,0.2-0.4,0.3
				c-10.4,2.2-10.4,2.2-10.4,13.3c0,2.9-0.1,5.9,0,8.8c0.2,6.2,2.9,8.4,9.2,7.4c1.1-0.2,2.2-0.4,3.4,0.1c1.8,3.5-0.4,7-0.2,9.7
				c3.6-7,7.8-14.5,12.3-21.8c0.7-1.1,1.8-2.1,3.3-1.1c1.4,1.7,1.2,3.6,0.9,5.6c-2.5,21.7-4.2,43.5-7,65.1c-0.4,3.4-0.1,6.9-1,10.3
				c-0.9,3.5-2.4,5.3-6.2,4.1c-2.6-1.3-5.2-1.9-8.4-1.6c-4,0.4-7.4-1.9-11-3.6c-2.8-1.4-5.3-3.2-8.4-3.9c-1.7-0.5-3.3-1.2-3.3-3.4
				c1.1-4-2-6.9-2.8-10.4c0-3,2.2-5.4,2.8-8.2c2-5.2,4.6-10,4.5-16c-0.3-7.6-3.2-13.3-9.8-17.1c-1.9-1.1-4.4-1.7-5.3-4.2
				c-3.9-1.3-7.6-3.2-12-3.1c-1.7,0.1-3.5-0.6-4.9-1.9c1.5-1.8,3.6-1.4,5.5-1.1c14.2,2.4,28.3-10.2,26.1-25.7
				c-0.2-1.6-0.4-3.3,0.4-4.8C1125.7,694.3,1130.6,691.4,1136.2,690z"/>
			<path class="st93" d="M1121.3,697c2.6,16.2-1.7,25.1-15.2,31.4c-5.8,2.7-11.6,0.8-17.4,0.2c-19-8.8-19-28.4-10.9-38.7
				c5.7-7.3,17.7-13.8,31.5-6.7c1,0.6,2.1,1.3,3.1,1.9c4,2.1,7.1,5,9,9.2C1121.8,695.2,1122,696.1,1121.3,697z"/>
			<path class="st94" d="M1025.2,721.9c-12.7-14.8-6.5-35.9,12.1-40.9c3.4-0.1,6.9-0.7,10.2-0.2c13.6,2,22.4,14.6,20.3,28.4
				c-2.1,13.3-15.2,22.5-28.7,20.2C1033.5,728.6,1029,725.9,1025.2,721.9z"/>
			<path class="st95" d="M1160.9,712.8c-0.6,1.4-1.2,2.7-1.8,4.1c-2.5,4.6-5.1,9.2-7.6,13.8c-2.5,4.6-5,9.1-7.8,13.6
				c-0.1-4.6-2.2-9.3,1.5-13.4c0-2.3,1.9-3.3,3.3-4.7c7-7.1,6.2-17.1-1.9-22.9c-1.3-0.9-2.9-1.6-3.4-3.4c-0.4-0.6-0.8-1.2-1.2-1.8
				c6.7,1.2,13,6.5,13.8,12.8C1156.4,715.7,1158.1,714.9,1160.9,712.8z"/>
			<path class="st96" d="M1121.3,697c-0.3-0.7-0.6-1.4-0.9-2.1c-2.7-6.4-2.8-6.5,2.7-10.4c1.5-1.1,2.4-2.8,4.2-3.4
				c3.5,1.8,4.9,0.3,4.9-3.2c0-1.8-0.2-3.8,2.1-4.4c1-0.3,1.9,0,2.6,0.8c1.4,1.6,0.8,3.3,0.3,5.1c-0.9,3.5-5.3,6.6-1.1,10.6
				C1132.1,694.1,1127.4,697,1121.3,697z"/>
			<path class="st97" d="M1127.3,681.1c0.1,2.2-0.8,4.1-2.8,4.7c-5,1.5-6.1,4.5-4.1,9c-2.7-3.3-5.3-6.5-8-9.8
				c3.9,1.7,6.2-0.1,8.1-3.3C1122.4,678.6,1124.8,678.6,1127.3,681.1z"/>
			<path class="st98" d="M1143.2,699.9c7,1.8,10.7,6.7,11.7,13.5c1.2,8.1-2.8,13.7-9.7,17.5c-1.7,0.6-3.3,1.4-5.1,1.7
				c-5.3,0.9-9.7-2.7-9.8-8.3c-0.1-5.4-0.1-10.9,0-16.3c0.1-6.7,4-9.9,10.5-8.6C1141.6,699.5,1142.4,699.7,1143.2,699.9z"/>
			<path class="st99" d="M1084.7,706.8c-1.7-10.1,5.2-18,14.8-16.7c6.7,0.9,10,4.8,9.8,11.6c0,3.8-2.4,5.5-5.6,6.3
				c-2,0.5-4.1,0.7-6,1.8C1091.2,713.6,1089.5,713.1,1084.7,706.8z"/>
			<path class="st100" d="M1084.7,706.8c5.1,4.9,7.7,5.1,12.8,0.7c0.9-0.8,1.7-1.4,3-1.1c4.2,0.9,6.7-1.5,8.8-4.6
				c3.3,5.4,1.5,11.2-4.5,14.8c-5.8,3.5-14.6,1-17.6-5.1C1086.5,709.8,1084.5,708.9,1084.7,706.8z"/>
			<path class="st101" d="M1029.4,704.5c1.2-8.9,5.1-13.6,12-14.4c5.9-0.6,10.5,1.6,13.5,6.9c1.7,7.1,0.1,9.8-6.7,11.2
				c-1.8,0.4-3.5,0.8-5.1,1.7C1035.8,714.2,1032,712.6,1029.4,704.5z"/>
			<path class="st102" d="M1029.4,704.5c4,7.2,7.4,7.9,13.9,2.7c0.8-0.7,1.6-0.8,2.6-0.9c6.9-0.2,8.8-2.2,8.9-9.3
				c6.1,12.1,0.5,22.9-12,22.7C1035.3,719.7,1030.1,713.8,1029.4,704.5z"/>
			<path class="st103" d="M1148.8,710.8c-0.3,3.8-2.2,6.2-6.1,6.2c-3.9,0-6.2-2.2-6.2-6.1c0-3.8,2.1-6.2,6.1-6.2
				C1146.5,704.8,1148.4,707,1148.8,710.8z"/>
			<animateTransform attributeName="transform"
                    type="translate"
                    from="0 0" to="0 2"
                    begin="play.click" dur="0.5s"
                    repeatCount="indefinite"	
            />	
		</g>
		<g id="left_x5F_">
			<path class="st104" d="M1117.4,771.3c0.9,3.4-2.5,5-3.1,7.8c-2.4,0.4-2.8-1.9-3.9-3.2c-1.1-1.3-2-2.7-3.3-3.7
				c-1-0.7-2-1.3-3.2-0.5c-1.4,0.8-1.6,2.2-1,3.5c2.1,4.7,4.9,8.9,8.5,12.6c1.8,1.8,4.3-0.1,6,1.4c-0.6,1.9,0.8,2.8,1.9,3.8
				c-2.4-0.1-4.2,0.2-3.2,3.5c0.7,2.5-0.6,4.3-2.8,5.5c-2.2,1.4-3.3-0.3-4.3-1.7c-0.9-1.2-1.4-2.6-2.3-3.8c-1-1.3-2.1-2.7-4-2.1
				c-2.1,0.7-1.8,2.4-1.6,4.1c0.2,1.5,0.4,2.9-0.8,4.2c-5.9,2.9-11.9,4.9-18.6,2.8c-1.9-1.7-1-3.9-1.2-5.9c-0.1-1.4,0.1-3.1-1.6-3.8
				c-2-0.7-2.9,0.9-3.9,2.2c-1,1.2-1.3,3.1-3.3,3.3c-2.5-1.5-4-3.8-5.6-6.2c-0.3-2.9,2.2-4.7,3-7.1c0.6-1.9,1.4-3.7,1.8-5.6
				c0.5-2.4,2.1-5.8-1.4-6.8c-3-0.9-3.6,2.6-4.7,4.7c-0.8,1.4-0.5,3.8-3.1,3.8c-0.8-5.5,0.3-12.9,2.7-18.2c0.1-0.1,0-0.3,0.1-0.5
				c0.9-1.7,2.7-1.7,4.2-2c2-0.4,3.8-1.3,5-2.9c1.9-2.3,2.6-4.7-1-6.3c-0.9-0.4-1.8-0.9-2.2-1.8c1.6-2.8,4.4-4.2,6.9-5.9
				c7.1-6.4,20.1-3.7,25,3c-0.2,2.7-2.5,2.1-4,2.6c-3.2,0.9-3,2.7-1.2,4.7c1.8,2,4.1,3.2,6.5,4.3c2.2,1,3.8,0.6,4.5-1.9
				c0.4-1.2,0.7-2.6,2.2-3.1c0.2,0,0.4,0,0.5,0.1C1113.1,761.3,1117,765.6,1117.4,771.3z"/>
			<path class="st105" d="M1102.5,750.5c-7.5-6.2-15.8-6.8-24.8-4c7-9.1,15.7-14.7,27.8-12.9c15.9,3.6,21.3,20.7,13.9,33.8
				c-0.7,1.3-1.3,2.6-2,3.9c-3.1-4.6-6.9-8.9-7-14.9C1106.4,756.4,1103.6,754.6,1102.5,750.5z"/>
			<path class="st106" d="M1062,784.1c1.2-2.8,1.3-6.1,3.3-8.6c1.4-1.7,2.9-3.2,5.4-2.3c2.3,0.9,3.3,2.5,3.1,4.9
				c-0.7,6.3-2.4,12.2-7,16.8c-0.6,1.2-1.5,1.6-2.8,1c-1.1-2-2.8-3.1-5.2-3.2C1061.4,790.5,1060.7,786.9,1062,784.1z"/>
			<path class="st107" d="M1064,796c0.9-0.3,1.9-0.7,2.8-1c3.1,0.8,4.9,2.7,5,6c1.9,1.7,0.8,4,0.9,6c0.1,1.6,0.5,2.9,2.2,3.3
				c1.6,0.4,2.3-0.7,3.1-1.8c0.9-1.5,1.6-3.3,3.7-3.5c6.4,0.1,12.5-2,18.8-3c0.2,0,0.4,0,0.5,0.1c3.4,3.7,7.2,6.9,11.3,9.8
				c0.4,6.8-0.2,7.6-6.4,7.6c-3.4,0-1.9,2.1-1.7,3.6c0.5,4.5-2,8-5.4,7.3c-2.9-0.6-3.9-3.3-5.1-5.6c-3.9-0.2-4.8-2.7-4.7-6
				c0-1,0.1-2,0.1-2.9c0.1-1.9-0.5-3.3-2.5-3.6c-1.9-0.2-2.5,1.1-3,2.6c-0.6,1.9-0.8,3.8-0.9,5.8c-0.1,2,0,4-1.2,5.7
				c-0.2,0.3-0.6,0.6-0.8,0.5c-3.9-3-5.4,0.1-6.9,2.8c-1.5-1.7-0.5-3.8-1.1-5.7c-1-1.1-1.7,0.1-2.5,0.3c-4.1,0.9-6.2-0.7-6.3-5
				c-0.1-2.2,0.5-4.2,1.1-6.2c0.4-1.2,1.2-2.9-0.3-3.5c-7.3-3.1-4.2-7.5-1.6-11.8C1063.4,797.2,1063.7,796.6,1064,796z"/>
			<path class="st108" d="M1091.6,763.4c0,0.3,0,0.9-0.1,1.6c-0.9,5.8-2.9,8.1-6.6,7.2c-5.2-1.2-4-5.1-3.2-8.7
				c0.1-0.6,0.1-1.3,0.3-2c0.7-3,1.8-6.2,5.5-5.8C1091.5,756.2,1091.7,759.7,1091.6,763.4z"/>
			<path class="st109" d="M1087.7,783.7c-0.3-3.7,0.1-7.2,4.4-8.2c2.6-0.6,5.3,4.3,5.5,8.8c0.2,3.7-0.8,6.9-4.8,7.2
				c-2.8,0.2-4.9-1.8-5.1-4.9C1087.6,785.7,1087.7,784.7,1087.7,783.7z"/>
			<path class="st106" d="M1117.5,789.2c-3.7,3.1-6.7,1.8-9.1-1.7c-2.4-3.4-4.7-6.8-6.8-10.3c-1.6-2.6-1.7-5.3,1.1-7.4
				c2.8-2,4.5-0.1,6.4,1.6c2.3,2.2,3.6,5.1,5.2,7.7C1116.2,782.2,1120.2,784.6,1117.5,789.2z"/>
			<path class="st110" d="M1081.8,805c-0.7,1.5-1.4,2.9-2,4.4c-0.9,2.4-2.5,3.9-5.2,3.2c-2.8-0.7-4.1-2.5-3.7-5.4
				c0.3-2.1,0.7-4.1,1-6.2c0.8-1.7,1.5-3.5,2.5-5.1c1.2-2,3-3.1,5.3-2.5c2.4,0.7,3,2.6,3.1,4.9
				C1082.9,800.6,1082.2,802.7,1081.8,805z"/>
			<path class="st111" d="M1102.5,750.5c2.6,2,5.3,4,7.9,6c-0.1,8.3-2.1,9.4-9.3,5.2c-1.7-1-3.4-2-4.9-3.3c-1.6-1.4-3.2-3.3-2-5.6
				c1-2,2.9-3.1,5.4-2.5C1100.5,750.5,1101.5,750.4,1102.5,750.5z"/>
			<path class="st112" d="M1070.8,752.4c3.2,0,6.5-0.1,6.9,4.3c0.3,3.7-3.7,8-8,8.6c-1.6,0.2-3.3,0.1-4.9,0.1
				c-2.4-2.9-2.2-5.6,0.6-8.1C1067.2,755.7,1069,754.1,1070.8,752.4z"/>
			<path class="st113" d="M1112.3,811.9c-6.6-0.1-9.6-4.5-11.8-9.9c-0.4-1.1-0.6-2.2-1.1-3.2c-1.3-2.5-0.6-4.8,1.6-6
				c2.5-1.4,4.7-0.8,6.9,1.7c2.1,2.4,1.5,6.8,5.6,7.6C1113.8,805.4,1112.5,808.6,1112.3,811.9z"/>
			<path class="st114" d="M1080.7,826.8c0.1-4.4-0.2-8.8,1-13.1c0.9-3.3,2.8-4.3,5.8-3.5c2.9,0.7,4.4,2.5,3.7,5.8
				c-0.8,3.4-1.6,6.8,2.4,8.9c-4.1,1.7-6.9,5.8-11.8,6C1080.2,829.8,1079.8,828.4,1080.7,826.8z"/>
			<path class="st115" d="M1080.7,826.8c0.4,1.3,0.7,2.7,1.1,4c-3.1,2.6-5.8,2.6-8.1-1c0-0.5,0-1,0.1-1.4c0.5-2-1.3-5,1.8-5.7
				C1078.5,821.9,1079.5,824.7,1080.7,826.8z"/>
			<animateTransform attributeName="transform"
                    type="translate"
                    from="0 0" to="-3 -3"
                    begin="play.click" dur="0.5s"
                    repeatCount="indefinite"	
            />
		</g>
		<g id="leg2">
			<path class="st81" d="M998.2,872c3.4-8.7,4.6-18,7.3-26.9c1.4-5.7,2.5-11.6,4.4-17.1c2-5.9,2.6-11.7,1.1-17.9
				c-0.6-2.5-1-5.2,0.6-7.7c-4.5,1.3-8.7-0.7-13.1-1.2c-9.4-0.9-17.2,5.8-17.9,15.3c-0.1,1.8-0.7,3.5-1.3,5.2
				c-2.6,13.7-4,27.7-6.1,41.5c-0.2,1.6-0.4,3.3-0.7,4.9c-1.2,7.2-1.2,7.2-8.3,7.5c-3.5,1.6-6.9,3.4-9.5,6.4c-1.2,1.8-2.1,3.6-1,5.8
				c0.5,7.3,2.7,9,11.1,8.7c2-1,2.3-3,3.1-4.8c2.4-5.6,6-7.8,11.9-7.4c5.1,0.4,6.8,3.4,4.7,8.1c-0.8,1.8-2.9,3.3-1.8,5.8
				c5.5,0.3,9-2.3,10.5-7.6C995,884.4,996.6,878.2,998.2,872z"/>
			<path class="st82" d="M982.9,898.1c1.8-3,5-5.1,4.8-9.3c-0.2-3-1.3-5.3-4.1-5.9c-7.8-1.8-14.6-0.2-17.5,8.8
				c-0.5,1.5-0.7,3.2-1.1,4.8c0.4,0.9,0.8,1.7,1.2,2.6c1.3,2.9,2.9,5.6,6.4,6c3.5,0.4,5.8-1.3,7.6-4.2
				C980.8,899.8,982,899,982.9,898.1z"/>
			<path class="st83" d="M1013.5,801.5c-2.5,0.1-3.8-0.6-4.2-3.5c-1.4-12.9-3.1-25.8-4.7-38.6c-1.7-12.9-3.4-25.7-5.2-38.6
				c-0.2-1.5-1-2.8,0.2-4.2c1-2.1-1.5-2.6-1.9-4c-2.9-5.4-7.4-8-13.6-7.7c-2.8,0.1-5.6,0.2-8.3,0.2c0.4,1,0.6,1.9-0.3,2.7
				c-7.8,6.6-5.6,15.3-4.7,23.4c1.6,14.3,3.7,28.6,5.4,42.9c0.7,6,2.6,11.9,2.4,18c-2.3,2.4-1.3,5.2-1,7.9
				c0.6,5.4,1.7,10.7,1.5,16.1c-0.1,2.1,0.1,4.3,2.2,5.7c1-1.1,1-2.5,0.8-3.7c-1.7-10.9,12.1-18.9,22.6-13.3
				c3.4,1.8,4.8,2.5,5.5-1.8c0-0.2,0.8-0.4,1.3-0.5C1012.2,802.1,1012.9,801.8,1013.5,801.5z"/>
				<animateTransform attributeName="transform"
                    type="translate"
                    from="0 0" to="5 3"
                    begin="play.click+3s" dur="1.5s"
                    repeatCount="indefinite"
    		/>
		</g>
		<g id="right_x5F_">
			<path class="st104" d="M1004.3,763.1c-1.4,3.1,1.6,5.2,1.7,7.9c2.3,0.7,3-1.4,4.2-2.4c1.2-1,2.3-2.2,3.7-3c1-0.5,2.1-0.9,3.1,0
				c1.2,1,1.2,2.3,0.4,3.5c-2.7,4.1-6.1,7.7-10.1,10.7c-2,1.5-4-0.7-6,0.4c0.2,1.8-1.2,2.5-2.4,3.3c2.3,0.3,3.9,0.8,2.5,3.8
				c-1.1,2.2-0.1,4.2,1.8,5.7c1.9,1.7,3.1,0.3,4.4-0.9c1-1,1.7-2.2,2.8-3.2c1.2-1.1,2.4-2.3,4.1-1.4c1.9,1,1.3,2.6,0.8,4.1
				c-0.4,1.4-0.9,2.7,0.1,4.1c5.2,3.7,10.6,6.5,17.2,5.6c2.1-1.3,1.6-3.6,2-5.5c0.3-1.4,0.4-3,2.1-3.3c2-0.4,2.6,1.3,3.4,2.7
				c0.7,1.3,0.7,3.1,2.6,3.7c2.6-1.1,4.4-3,6.3-5c0.8-2.7-1.3-4.8-1.7-7.2c-0.3-1.9-0.8-3.7-0.8-5.6c-0.1-2.4-1.1-5.8,2.4-6.2
				c3-0.4,3,3,3.8,5.2c0.5,1.5-0.1,3.7,2.3,4.1c1.6-5.1,1.7-12.3,0.3-17.7c0-0.1,0-0.3,0-0.5c-0.6-1.7-2.3-2.1-3.7-2.6
				c-1.9-0.7-3.4-1.9-4.3-3.5c-1.4-2.5-1.8-4.9,1.9-5.8c0.9-0.2,1.8-0.5,2.4-1.4c-1.1-2.9-3.6-4.7-5.7-6.7c-5.8-7.2-18.6-6.7-24.3-1
				c-0.3,2.6,2,2.4,3.4,3.1c2.9,1.4,2.4,3,0.4,4.6c-2,1.6-4.4,2.4-6.9,3.1c-2.3,0.7-3.7,0-4-2.5c-0.2-1.2-0.2-2.6-1.6-3.3
				c-0.2,0-0.4,0-0.5,0.1C1009.9,754.3,1005.6,757.8,1004.3,763.1z"/>
			<path class="st105" d="M1021.7,745.6c8.1-4.8,16.1-4,24.2,0.1c-5.3-9.8-12.6-16.4-24.4-16.6c-15.7,1-23.5,16.4-18.5,30
				c0.5,1.3,0.8,2.7,1.2,4.1c3.7-3.9,7.9-7.4,9-13.1C1017.1,750.6,1020.1,749.3,1021.7,745.6z"/>
			<path class="st106" d="M1055,783.9c-0.7-2.9-0.3-6-1.8-8.7c-1.1-1.8-2.2-3.5-4.8-3c-2.4,0.5-3.6,1.8-3.7,4.2
				c-0.3,6.1,0.4,11.9,4,17.1c0.4,1.2,1.2,1.8,2.5,1.4c1.4-1.7,3.2-2.5,5.4-2.2C1054.6,790.1,1055.8,786.8,1055,783.9z"/>
			<path class="st107" d="M1051.2,795c-0.8-0.5-1.7-0.9-2.5-1.4c-3.1,0.3-5.1,1.8-5.7,4.9c-2.1,1.4-1.4,3.6-1.8,5.5
				c-0.3,1.5-0.9,2.7-2.6,2.8c-1.5,0.1-2.1-1-2.6-2.2c-0.7-1.5-1-3.4-3-3.9c-6.1-0.9-11.6-3.9-17.4-5.8c-0.2,0-0.4-0.1-0.5,0
				c-3.8,3-8,5.4-12.3,7.6c-1.5,6.4-1,7.3,4.9,8.2c3.3,0.5,1.5,2.3,1.1,3.7c-1.2,4.2,0.6,7.9,4,7.8c2.9-0.1,4.2-2.5,5.7-4.5
				c3.7,0.4,5-1.8,5.4-4.9c0.1-0.9,0.3-1.9,0.3-2.8c0.2-1.8,1-3.1,2.9-3c1.8,0.1,2.2,1.5,2.4,3c0.3,1.9,0.2,3.8-0.1,5.7
				c-0.3,1.9-0.6,3.8,0.3,5.6c0.2,0.3,0.5,0.7,0.6,0.6c4.2-2.2,5.1,1,6.2,3.8c1.7-1.3,1-3.6,1.9-5.3c1.1-0.9,1.6,0.4,2.4,0.7
				c3.7,1.5,6,0.3,6.8-3.8c0.4-2.1,0.2-4.1-0.1-6.1c-0.2-1.2-0.7-3,0.8-3.3c7.4-1.8,5.1-6.5,3.4-11
				C1051.6,796.2,1051.4,795.6,1051.2,795z"/>
			<path class="st108" d="M1030.1,759.6c0,0.2-0.1,0.9-0.1,1.5c0,5.7,1.4,8.2,5.2,7.9c5.1-0.3,4.6-4.2,4.4-7.8
				c0-0.6,0.1-1.3,0.1-1.9c-0.2-3-0.7-6.1-4.4-6.3C1031.3,752.8,1030.6,756.1,1030.1,759.6z"/>
			<path class="st109" d="M1030.6,779.6c0.9-3.5,1-6.9-2.9-8.5c-2.4-0.9-5.7,3.3-6.6,7.5c-0.8,3.5-0.4,6.7,3.4,7.6
				c2.7,0.7,4.9-0.9,5.6-3.9C1030.4,781.4,1030.5,780.5,1030.6,779.6z"/>
			<path class="st106" d="M1001.4,780.1c3,3.5,6.1,2.7,8.9-0.2c2.8-2.8,5.5-5.7,8.1-8.7c1.9-2.3,2.5-4.8,0.1-7.2
				c-2.3-2.3-4.3-0.8-6.3,0.5c-2.6,1.7-4.2,4.3-6.2,6.5C1003.7,773.7,999.5,775.3,1001.4,780.1z"/>
			<path class="st110" d="M1032.9,800.7c0.4,1.5,0.9,3,1.2,4.5c0.5,2.4,1.8,4.1,4.4,3.9c2.7-0.2,4.3-1.7,4.4-4.5c0.1-2,0-4,0-6.1
				c-0.5-1.8-0.9-3.6-1.6-5.3c-0.8-2.1-2.3-3.4-4.6-3.2c-2.4,0.2-3.2,2-3.7,4.2C1032.6,796.4,1032.8,798.5,1032.9,800.7z"/>
			<path class="st111" d="M1021.7,745.6c-2.8,1.5-5.7,2.9-8.5,4.4c-1.2,7.9,0.5,9.3,8.1,6.4c1.8-0.7,3.6-1.4,5.2-2.4
				c1.7-1.1,3.5-2.6,2.8-5c-0.7-2.1-2.3-3.4-4.7-3.2C1023.6,746,1022.7,745.7,1021.7,745.6z"/>
			<path class="st112" d="M1051.6,752.5c-3-0.5-6.2-1.2-7.2,3c-0.9,3.5,2.3,8.2,6.3,9.4c1.5,0.5,3.1,0.6,4.6,0.9
				c2.8-2.4,3-4.9,0.7-7.8C1054.5,756.2,1053.1,754.3,1051.6,752.5z"/>
			<path class="st113" d="M1002.8,802.5c6.3,1,9.8-2.8,12.8-7.6c0.5-1,0.9-2,1.6-2.9c1.6-2.2,1.3-4.5-0.6-6
				c-2.1-1.7-4.4-1.5-6.8,0.5c-2.3,2-2.4,6.2-6.5,6.4C1002.4,796.1,1003.1,799.3,1002.8,802.5z"/>
			<path class="st114" d="M1030.5,821.6c0.6-4.2,1.6-8.3,1.1-12.6c-0.3-3.3-2-4.5-4.9-4.2c-2.9,0.2-4.6,1.7-4.4,4.9
				c0.2,3.3,0.4,6.7-3.7,8.1c3.6,2.3,5.7,6.6,10.3,7.6C1030.5,824.6,1031.1,823.3,1030.5,821.6z"/>
			<path class="st115" d="M1030.5,821.6c-0.6,1.2-1.1,2.4-1.7,3.7c2.5,2.9,5.1,3.4,7.8,0.3c0.1-0.5,0.2-0.9,0.2-1.4
				c-0.2-2,2-4.5-0.8-5.7C1033.3,817.4,1032,819.9,1030.5,821.6z"/>
			<animateTransform attributeName="transform"
                    type="translate"
                    from="0 0" to="3 3"
                    begin="play.click" dur="0.5s"
                    repeatCount="indefinite"	
            />	
		</g>
	</g>
	<animateTransform attributeName="transform"
                    type="translate"
                    from="0 0" to="-700 -10"
                    begin="play.click+3s" dur="6s"
                    repeatCount="1"
                    fill="freeze"	
    />
    <animateTransform attributeName="transform"
                    type="translate"
                    from="-700 -10" to="480 0"
                    begin="play.click+9s" dur="15s"
                    repeatCount="1"
                    fill="freeze"	
    />
</g>
<g>
		<path class="sst0" d="M1445.9,658.2c14.6,2.2,24.8,10.1,30,23.9c9.3,24.4,18.3,49,27.4,73.4c1.2,3.3,2.6,6.6,3.9,9.9
		c4.4,3.1,4.5,8.3,6.3,12.7c1.7,5.1,4.1,10,6,15c4.7,12.6,8.8,25.5,14.3,37.8c8.4,18.7,14.7,38.2,22.2,57.2c1.8,4.4,2.7,4.8,7.3,1.9
		c17.4-11.2,28.3-26.9,32.4-47.3c0.4-2.1,0.9-4.2,0.9-6.4c-0.1-8.9-0.6-17.8,2.8-26.3c3-10.4,8.8-18.5,17.9-24.5
		c4.6-3,9.5-3.8,14.5-4.1c11.5-0.6,22.8,0.3,32.5,7.9c3.5,2.7,5.9,6.2,8.6,9.6c10.3,24.5,18.9,49.7,28.4,74.5
		c13.4,34.7,26.4,69.6,39.5,104.5c1.1,2.9,3.2,5.4,2.9,8.7c-16.1,0.1-32.2,0.1-48.3,0.1c-188.7,0-377.5,0-566.2,0
		c-1.7,0-3.4-0.1-5.1-0.1c-0.4-2.9,1.8-4.2,3.7-5.3c10.3-6,21.2-10.2,33.2-10.4c20.4-0.3,40.8-0.1,61.2-0.1c5.6,0,5.6,0,6.1-5.7
		c0.4-4.7,2.3-6.5,7.1-6.7c4.1-0.2,8.3,0.5,12.4-0.4c3.4-6.1,5.3-12.7,7.8-19.2c3.4-8.8,6.6-17.6,9.9-26.4c0.3-5.1,1.7-9.9,3.6-14.6
		c5-12,19.2-16.3,30.2-9.1c3.9,2.9,6.2,6.7,7.9,11.2c3.2,8.9,6,17.9,9.4,26.7c1.6,4,1.9,4.1,4.9,1.1c8.5-8.4,14.8-18.3,19.5-29.2
		c0.9-2.1,1.5-4.5,4-5.5c1.7-0.4,3,0.5,4.4,1.1c4.9,2.3,7.3,1.3,9.3-3.8c1.4-3.5,2.3-7.1,3.2-10.7c7-25.7,14.2-51.3,21.4-77
		c7.8-28,15.4-56.2,23.7-84.1c2.8-9.5,5.8-18.9,8.6-28.4c3.2-11.1,10.3-18,22-20.1c6.5-1.2,6.7-1.9,6-8.4
		C1443.3,659.8,1442.6,657.5,1445.9,658.2z"/>
	<path class="sst1" d="M1247.7,957.9c-3.3,1.9-7,0.7-10.5,0.9c-5.9,0.3-9.1,3.6-6.9,9c2.2,5.4-0.7,4.9-4.1,4.9
		c-20.6,0-41.2-0.1-61.9,0c-15,0.1-28.6,4.4-40.5,13.8c-7.4,0-14.9,0-22.3,0c14.8-16.2,33.1-25.9,55-27.7
		C1187,956.5,1217.4,958.4,1247.7,957.9z"/>
	<path class="sst1" d="M1599.4,810c-2,15.1,0.8,30.6-5.3,45.3c-6.8,16.3-17.3,29.1-32.6,37.9c-3.7,2.1-5.4,1-6.8-2.8
		c-5.8-16-11.2-32.2-17.9-47.8c-8.2-19-15.1-38.5-22.3-57.9c-0.8-2.1-2.7-3.8-2.4-6.4c1.9-1.2,2.9-3,3.7-5.1
		c1.4-3.9,2.8-7.8,4.4-11.6c0.6-1.5,1.2-3.2,3.1-3.7c2.2-6.9,5.8-12.8,12.1-16.7c9.6-5.1,19.3-6.3,29.2-0.8
		c8.4,4.6,11.6,12.7,14.5,21.2c5.8,17.4,12.1,34.7,18.3,52.5C1599.1,812.9,1598,810.8,1599.4,810z"/>
	<path class="sst1" d="M1445.9,658.2c-1.8,0.6-1.2,1.5-0.7,2.8c2.2,6.3,0.5,9.5-6,10.5c-11.9,1.8-19.2,8.5-22.2,20
		c-5.7,22-13.3,43.3-18.9,65.3c-6.6,26-14.6,51.8-21.9,77.6c-4.8,17-9.4,34-14.1,51c-0.6,2.1-1.2,4.2-1.9,6.2
		c-2.3,6.3-7,7.7-12.5,3.8c-1-0.7-1.8-1.7-3.2-1.7c-2.2-5.8,0.3-10.5,3.7-14.9c6.1-21.4,12.3-42.8,18.4-64.3
		c5.4-18.9,10.6-37.8,15.9-56.7c0.7-2.5,1.2-4.8-0.2-7.2c-0.7-1.3-0.7-2.7-0.1-4c2.1-4.9,3.1-10,4.7-15.1c0.2-0.8-0.6-4,2.4-1.8
		c1.1,0.8,1.4-0.7,1.5-1.6c3.3-14.8,10.1-28.6,12.7-43.6C1406.7,666.8,1431.9,653.7,1445.9,658.2z"/>
</g>
</svg>
